<svg width="106" height="50" viewBox="0 0 106 50" fill="none" xmlns="http://www.w3.org/2000/svg">
<path d="M0 49.2688V35.7825H6.12216C7.58532 35.7825 8.87521 36.065 9.99183 36.6302C11.1084 37.1825 11.9812 37.9596 12.6101 38.9614C13.239 39.9632 13.5535 41.1513 13.5535 42.5256C13.5535 43.8871 13.239 45.0752 12.6101 46.0899C11.9812 47.0917 11.1084 47.8752 9.99183 48.4404C8.87521 48.9927 7.58532 49.2688 6.12216 49.2688H0ZM3.11884 46.7064H5.96814C6.86657 46.7064 7.64307 46.5394 8.29765 46.2055C8.96505 45.8587 9.47844 45.3706 9.83781 44.7413C10.21 44.1119 10.3961 43.3734 10.3961 42.5256C10.3961 41.6651 10.21 40.9265 9.83781 40.31C9.47844 39.6807 8.96505 39.199 8.29765 38.8651C7.64307 38.5183 6.86657 38.3449 5.96814 38.3449H3.11884V46.7064Z" fill="white"/>
<path d="M13.9463 49.2688L19.953 35.7825H23.0333L29.0592 49.2688H25.7864L20.8578 37.3623H22.09L17.1422 49.2688H13.9463ZM16.9496 46.3789L17.7775 44.0091H24.7082L25.5553 46.3789H16.9496Z" fill="white"/>
<path d="M30.4574 49.2688V35.7825H33.5762V46.7257H40.3337V49.2688H30.4574Z" fill="white"/>
<path d="M40.3803 49.2688L46.387 35.7825H49.4673L55.4932 49.2688H52.2204L47.2918 37.3623H48.524L43.5762 49.2688H40.3803ZM43.3837 46.3789L44.2115 44.0091H51.1422L51.9893 46.3789H43.3837Z" fill="white"/>
<path d="M63.1528 49.5C62.1132 49.5 61.1442 49.333 60.2458 48.9991C59.3602 48.6523 58.5901 48.1642 57.9355 47.5349C57.2809 46.9055 56.7676 46.167 56.3954 45.3192C56.036 44.4715 55.8563 43.5403 55.8563 42.5256C55.8563 41.511 56.036 40.5798 56.3954 39.732C56.7676 38.8843 57.2809 38.1458 57.9355 37.5164C58.6029 36.8871 59.3794 36.4054 60.265 36.0715C61.1506 35.7247 62.1196 35.5513 63.1721 35.5513C64.34 35.5513 65.3925 35.7568 66.3294 36.1678C67.2792 36.566 68.0749 37.1568 68.7167 37.9403L66.7145 39.7898C66.2524 39.2632 65.739 38.8715 65.1743 38.6146C64.6096 38.3449 63.9935 38.21 63.3261 38.21C62.6972 38.21 62.1196 38.3128 61.5934 38.5183C61.0672 38.7238 60.6116 39.0192 60.2265 39.4045C59.8415 39.7898 59.5399 40.2458 59.3217 40.7724C59.1163 41.299 59.0136 41.8834 59.0136 42.5256C59.0136 43.1678 59.1163 43.7523 59.3217 44.2789C59.5399 44.8055 59.8415 45.2614 60.2265 45.6468C60.6116 46.0321 61.0672 46.3275 61.5934 46.533C62.1196 46.7385 62.6972 46.8413 63.3261 46.8413C63.9935 46.8413 64.6096 46.7128 65.1743 46.4559C65.739 46.1862 66.2524 45.7816 66.7145 45.2422L68.7167 47.0917C68.0749 47.8752 67.2792 48.4725 66.3294 48.8835C65.3925 49.2945 64.3336 49.5 63.1528 49.5Z" fill="white"/>
<path d="M74.0599 49.2688V43.7587L74.7722 45.6468L68.8426 35.7825H72.1539L76.6974 43.3541H74.7915L79.3542 35.7825H82.4153L76.4856 45.6468L77.1787 43.7587V49.2688H74.0599Z" fill="white"/>
<path d="M87.8662 49.5C86.7881 49.5 85.7549 49.3587 84.7666 49.0761C83.7783 48.7807 82.9826 48.4018 82.3793 47.9394L83.4382 45.589C84.0158 46 84.696 46.3403 85.4789 46.6101C86.2747 46.867 87.0768 46.9954 87.8854 46.9954C88.5015 46.9954 88.9956 46.9376 89.3678 46.822C89.7529 46.6936 90.0352 46.5202 90.2149 46.3018C90.3946 46.0835 90.4845 45.833 90.4845 45.5504C90.4845 45.1908 90.3433 44.9082 90.0609 44.7027C89.7785 44.4844 89.4063 44.311 88.9443 44.1825C88.4822 44.0412 87.9688 43.9128 87.4041 43.7972C86.8522 43.6688 86.2939 43.5146 85.7292 43.3348C85.1773 43.155 84.6703 42.9238 84.2083 42.6412C83.7462 42.3587 83.3676 41.9862 83.0724 41.5238C82.79 41.0614 82.6489 40.4706 82.6489 39.7513C82.6489 38.9807 82.8542 38.2807 83.2649 37.6513C83.6885 37.0091 84.3174 36.5017 85.1516 36.1293C85.9987 35.7439 87.0576 35.5513 88.3282 35.5513C89.1753 35.5513 90.0096 35.654 90.831 35.8595C91.6524 36.0522 92.3776 36.3476 93.0065 36.7458L92.0439 39.1155C91.415 38.7559 90.7861 38.4926 90.1572 38.3256C89.5283 38.1458 88.9122 38.0559 88.309 38.0559C87.7057 38.0559 87.2116 38.1265 86.8266 38.2678C86.4415 38.4091 86.1656 38.5953 85.9987 38.8265C85.8319 39.0449 85.7485 39.3018 85.7485 39.5972C85.7485 39.944 85.8896 40.2265 86.172 40.4449C86.4544 40.6504 86.8266 40.8174 87.2886 40.9458C87.7507 41.0743 88.2576 41.2027 88.8095 41.3311C89.3743 41.4596 89.9326 41.6073 90.4845 41.7743C91.0492 41.9412 91.5626 42.166 92.0246 42.4486C92.4867 42.7311 92.8589 43.1036 93.1412 43.566C93.4364 44.0284 93.584 44.6128 93.584 45.3192C93.584 46.077 93.3723 46.7706 92.9487 47.4C92.5252 48.0294 91.8899 48.5367 91.0428 48.922C90.2085 49.3073 89.1497 49.5 87.8662 49.5Z" fill="white"/>
<path d="M98.3187 49.2688V38.3256H94.0062V35.7825H105.75V38.3256H101.438V49.2688H98.3187Z" fill="white"/>
<path d="M68.9553 7.44649L69.0535 7.62962C69.4137 8.30157 70.2296 8.58347 70.9273 8.27707C71.9217 7.7001 70.8799 6.38768 70.1496 7.06087L70.0096 6.51097C69.9617 6.32265 69.8842 6.14314 69.78 5.97914C69.6775 5.81785 69.5504 5.67357 69.4035 5.55151L68.9669 5.18895C69.8788 4.80387 69.1417 3.29513 68.2045 3.96287C67.6265 4.48079 67.5185 5.34593 67.9515 5.99022L68.0267 6.10206L66.5455 5.64354L64.3998 8.61569L64.7853 4.93816C64.8257 4.34125 64.6619 2.93478 63.6832 2.08413C64.0173 2.45052 64.5883 3.41141 64.1988 4.32387L63.5542 5.37269L63.8149 9.03908L63.447 5.30525L64.0789 4.28195C64.195 3.91108 64.2038 2.86906 63.3111 1.66792C63.5716 2.17265 64.0191 3.34278 63.7258 3.98544L62.772 4.9328L62.6826 9.65681L62.6458 4.87205L63.3664 3.5437C63.3733 2.8042 63.1715 1.06016 62.309 0C62.6577 0.642054 63.2501 2.23279 62.83 3.45927C62.4596 3.68128 61.6882 4.40142 61.5661 5.50587C61.444 6.61033 61.5632 10.4574 61.5422 10.4156L61.4342 4.79433C61.9819 3.89905 62.8819 1.76468 62.1004 0.389509C62.2217 1.25924 62.0034 3.30461 60.1595 4.52826L59.9891 11.3724L59.5405 5.21006C60.1134 4.2848 61.2432 2.18307 61.1784 1.17828C61.0243 1.7521 60.1327 3.42162 57.7983 5.50912L57.7694 7.40783C57.5086 8.1184 57.2143 9.75872 58.1238 10.6354L58.9871 12.0154C58.4339 11.965 55.1094 10.6026 55.252 9.10345L55.7465 6.33866L56.9046 2.51836C56.6031 3.34781 55.7676 5.28671 54.8377 6.40677C53.9077 7.52682 53.8512 8.79768 53.9391 9.29311C54.1348 9.28722 54.4994 9.42384 54.3929 10.0174C54.2864 10.6109 56.9083 12.9168 57.0258 13.2262C56.584 13.2558 52.9542 11.2244 51.6231 9.01554L51.0871 8.48875L50.8293 7.40048C50.2979 6.73915 49.2505 5.37364 49.31 5.19937C49.2131 5.4796 49.283 6.34636 50.3369 7.57429C50.3136 7.73694 50.3515 8.17561 50.6894 8.62914C50.2913 9.23295 49.9241 10.6472 51.6401 11.4735L55.73 14.0593L50.9644 11.9225C50.4767 11.5191 49.3737 10.6856 48.8639 10.5792L46.2782 8.22773C46.1961 8.36202 46.5338 9.08096 48.5418 10.8824C48.2067 11.5903 48.0578 13.0201 50.143 13.0759L54.4442 14.8373L48.1352 14.1637L47.4912 14.391L46.9234 14.2123L44.9034 14.6937L47.0682 14.6456C47.1963 14.9233 52.6385 15.2535 53.33 15.498C52.6252 15.5853 46.0622 16.1336 45.5015 16.4832L46.024 18.0466L45.8714 19.4904L44.5825 21.1457C41.9071 22.8027 35.4375 25.8514 29.7749 25.6492C29.1553 25.6271 28.6137 26.1089 28.619 26.7293C28.6227 27.1487 28.8784 27.5324 29.2893 27.6145C33.2849 28.4122 41.6578 24.7299 45.5471 22.6715L47.5755 22.1891L48.9346 22.6586L50.1161 23.7975C50.6662 23.4312 53.9851 17.4307 54.3609 16.8217C54.2883 17.5586 52.2304 22.9028 52.4253 23.1374L51.4683 25.101L52.7527 23.453L52.8322 22.8572L53.3079 22.3631L55.5709 16.3629L55.1309 20.9822C54.3007 22.9166 55.6457 23.3838 56.422 23.3756C57.1898 25.9762 57.692 26.5891 57.8471 26.5705L56.8299 23.2084C56.9497 22.6962 56.6678 21.3336 56.5119 20.7163L56.6643 15.4835L57.1998 20.2867C57.2165 22.208 58.6397 22.4685 59.3492 22.3586C59.6133 22.8597 59.9906 23.0796 60.1463 23.1269C60.8026 24.6111 61.5504 25.041 61.8426 25.0705C61.6612 25.0514 60.8788 23.5152 60.51 22.749L59.643 22.0533L59.3968 21.3398C57.978 19.1875 57.7551 14.9472 57.9681 14.5548C58.196 14.7932 59.0904 18.2256 59.6676 18.3786C60.2449 18.5315 60.2134 18.9234 60.1256 19.1002C60.5327 19.3899 61.6963 19.8745 63.0932 19.4951C64.4902 19.1157 66.5816 19.1685 67.4527 19.2423L63.5379 18.691L60.8498 17.9771C59.4453 17.4749 59.653 13.8228 59.8413 13.2945L60.864 14.5131C61.5001 15.6771 62.772 16.1229 63.3285 16.2002L65.148 17.1608C68.0053 15.9028 69.8789 15.7904 70.4585 15.8915C69.5848 15.4079 67.2232 15.556 66.1516 15.6905L60.9119 12.6099L67.0243 15.411C68.8999 14.2378 70.8263 14.9011 71.5551 15.3794C70.6517 14.0828 68.3578 14.0066 67.3237 14.1306L62.2863 11.5812C62.2578 11.5443 65.6994 13.355 66.7414 13.7093C67.7833 14.0637 68.7547 13.6607 69.1102 13.415C70.3874 13.5478 71.5638 14.7621 71.9924 15.3527C71.4058 14.1147 69.927 13.1936 69.2609 12.8878L67.7655 12.9874L63.5076 10.7971L67.7643 12.8461L69.0165 12.372C69.7166 12.3744 70.577 13.2785 70.9197 13.7302C70.2194 12.4052 69.2812 11.9734 68.8997 11.9232L67.7153 12.0703L64.4874 9.97865L67.7 11.9436L68.9127 11.7956C69.8954 11.8238 70.516 12.7527 70.7035 13.2136C70.3539 11.9576 69.1617 11.2138 68.6094 10.9989L65.0077 9.60924L68.7199 9.08799L68.9553 7.44649Z" fill="white"/>
</svg>
