<svg width="26" height="26" viewBox="0 0 26 26" fill="none" xmlns="http://www.w3.org/2000/svg">
<g clip-path="url(#clip0_127_641)">
<path d="M13.0013 0.361328C9.56891 0.361328 9.13815 0.376337 7.79005 0.437686C6.44459 0.499298 5.52619 0.712308 4.7226 1.02485C3.89136 1.34765 3.18624 1.77947 2.48376 2.48222C1.78074 3.1847 1.34893 3.88982 1.02507 4.7208C0.711743 5.52466 0.498469 6.44331 0.43791 7.78825C0.377614 9.13635 0.361816 9.56738 0.361816 12.9998C0.361816 16.4322 0.377088 16.8616 0.438174 18.2097C0.500049 19.5552 0.71306 20.4736 1.02533 21.2771C1.3484 22.1084 1.78022 22.8135 2.48297 23.516C3.18519 24.219 3.89031 24.6519 4.72102 24.9747C5.52514 25.2872 6.4438 25.5002 7.789 25.5618C9.1371 25.6232 9.5676 25.6382 12.9997 25.6382C16.4324 25.6382 16.8618 25.6232 18.2099 25.5618C19.5554 25.5002 20.4748 25.2872 21.2789 24.9747C22.1099 24.6519 22.814 24.219 23.5162 23.516C24.2192 22.8135 24.651 22.1084 24.9749 21.2774C25.2856 20.4736 25.4989 19.5549 25.5621 18.21C25.6226 16.8619 25.6384 16.4322 25.6384 12.9998C25.6384 9.56738 25.6226 9.13662 25.5621 7.78852C25.4989 6.44305 25.2856 5.52466 24.9749 4.72106C24.651 3.88982 24.2192 3.1847 23.5162 2.48222C22.8132 1.7792 22.1102 1.34739 21.2782 1.02485C20.4725 0.712308 19.5535 0.499298 18.2081 0.437686C16.86 0.376337 16.4308 0.361328 12.9973 0.361328H13.0013ZM11.8675 2.63888C12.204 2.63835 12.5795 2.63888 13.0013 2.63888C16.3758 2.63888 16.7757 2.65099 18.1083 2.71155C19.3405 2.7679 20.0093 2.9738 20.4548 3.14679C21.0446 3.37586 21.4651 3.64969 21.9072 4.09204C22.3495 4.53438 22.6234 4.95566 22.853 5.54546C23.0259 5.99043 23.2321 6.65922 23.2882 7.89147C23.3488 9.22377 23.3619 9.62398 23.3619 12.9969C23.3619 16.3697 23.3488 16.77 23.2882 18.1023C23.2318 19.3345 23.0259 20.0033 22.853 20.4483C22.6239 21.0381 22.3495 21.458 21.9072 21.9001C21.4648 22.3425 21.0449 22.6163 20.4548 22.8454C20.0098 23.0191 19.3405 23.2245 18.1083 23.2809C16.776 23.3414 16.3758 23.3546 13.0013 23.3546C9.62657 23.3546 9.22662 23.3414 7.89432 23.2809C6.66207 23.224 5.99329 23.0181 5.54752 22.8451C4.95773 22.616 4.53645 22.3422 4.0941 21.8999C3.65176 21.4575 3.37793 21.0373 3.14833 20.4472C2.97534 20.0022 2.76917 19.3335 2.71309 18.1012C2.65253 16.7689 2.64042 16.3687 2.64042 12.9937C2.64042 9.61872 2.65253 9.22061 2.71309 7.88831C2.76944 6.65606 2.97534 5.98727 3.14833 5.54177C3.3774 4.95198 3.65176 4.5307 4.0941 4.08835C4.53645 3.646 4.95773 3.37217 5.54752 3.14257C5.99303 2.9688 6.66207 2.76342 7.89432 2.70681C9.06022 2.65415 9.51204 2.63835 11.8675 2.63572V2.63888ZM19.7476 4.73739C18.9103 4.73739 18.231 5.41591 18.231 6.25347C18.231 7.09077 18.9103 7.77008 19.7476 7.77008C20.5849 7.77008 21.2642 7.09077 21.2642 6.25347C21.2642 5.41618 20.5849 4.73686 19.7476 4.73686V4.73739ZM13.0013 6.5094C9.41699 6.5094 6.51094 9.41545 6.51094 12.9998C6.51094 16.5841 9.41699 19.4888 13.0013 19.4888C16.5856 19.4888 19.4906 16.5841 19.4906 12.9998C19.4906 9.41545 16.5856 6.5094 13.0013 6.5094ZM13.0013 8.78695C15.3278 8.78695 17.2141 10.673 17.2141 12.9998C17.2141 15.3263 15.3278 17.2126 13.0013 17.2126C10.6745 17.2126 8.78849 15.3263 8.78849 12.9998C8.78849 10.673 10.6745 8.78695 13.0013 8.78695Z" fill="#969696"/>
</g>
<defs>
<clipPath id="clip0_127_641">
<rect width="25.2774" height="25.2766" fill="white" transform="translate(0.361816 0.361328)"/>
</clipPath>
</defs>
</svg>
