<svg width="94" height="44" viewBox="0 0 94 44" fill="none" xmlns="http://www.w3.org/2000/svg">
<path d="M0 43.7945V31.8066H5.44192C6.74251 31.8066 7.88907 32.0578 8.88163 32.5602C9.87418 33.0511 10.65 33.7418 11.209 34.6324C11.768 35.5229 12.0475 36.5789 12.0475 37.8006C12.0475 39.0108 11.768 40.0668 11.209 40.9688C10.65 41.8593 9.87418 42.5557 8.88163 43.0581C7.88907 43.549 6.74251 43.7945 5.44192 43.7945H0ZM2.7723 41.5168H5.30502C6.10362 41.5168 6.79384 41.3684 7.37568 41.0715C7.96893 40.7633 8.42528 40.3294 8.74472 39.77C9.07557 39.2106 9.241 38.5541 9.241 37.8006C9.241 37.0356 9.07557 36.3792 8.74472 35.8311C8.42528 35.2717 7.96893 34.8436 7.37568 34.5467C6.79384 34.2385 6.10362 34.0843 5.30502 34.0843H2.7723V41.5168Z" fill="#F95C5C"/>
<path d="M12.3967 43.7945L17.736 31.8066H20.474L25.8304 43.7945H22.9212L18.5403 33.2109H19.6355L15.2375 43.7945H12.3967ZM15.0664 41.2257L15.8022 39.1192H21.9629L22.7158 41.2257H15.0664Z" fill="#F95C5C"/>
<path d="M27.0732 43.7945V31.8066H29.8455V41.5339H35.8522V43.7945H27.0732Z" fill="#F95C5C"/>
<path d="M35.8936 43.7945L41.2329 31.8066H43.9709L49.3273 43.7945H46.4181L42.0372 33.2109H43.1324L38.7344 43.7945H35.8936ZM38.5632 41.2257L39.2991 39.1192H45.4598L46.2127 41.2257H38.5632Z" fill="#F95C5C"/>
<path d="M56.1358 44C55.2117 44 54.3504 43.8516 53.5518 43.5547C52.7646 43.2465 52.0801 42.8126 51.4982 42.2532C50.9164 41.6938 50.46 41.0373 50.1292 40.2838C49.8098 39.5302 49.65 38.7025 49.65 37.8006C49.65 36.8986 49.8098 36.0709 50.1292 35.3174C50.46 34.5639 50.9164 33.9074 51.4982 33.3479C52.0915 32.7885 52.7817 32.3604 53.5689 32.0635C54.3561 31.7553 55.2174 31.6011 56.153 31.6011C57.1911 31.6011 58.1267 31.7838 58.9595 32.1492C59.8037 32.5031 60.5111 33.0283 61.0815 33.7247L59.3017 35.3687C58.891 34.9007 58.4347 34.5524 57.9327 34.3241C57.4307 34.0843 56.8831 33.9645 56.2899 33.9645C55.7308 33.9645 55.2174 34.0558 54.7497 34.2385C54.2819 34.4211 53.8769 34.6837 53.5347 35.0262C53.1924 35.3687 52.9243 35.7741 52.7304 36.2421C52.5478 36.7102 52.4566 37.2297 52.4566 37.8006C52.4566 38.3714 52.5478 38.8909 52.7304 39.359C52.9243 39.8271 53.1924 40.2324 53.5347 40.5749C53.8769 40.9174 54.2819 41.18 54.7497 41.3627C55.2174 41.5453 55.7308 41.6367 56.2899 41.6367C56.8831 41.6367 57.4307 41.5225 57.9327 41.2942C58.4347 41.0544 58.891 40.6948 59.3017 40.2153L61.0815 41.8593C60.5111 42.5557 59.8037 43.0866 58.9595 43.452C58.1267 43.8173 57.1854 44 56.1358 44Z" fill="#F95C5C"/>
<path d="M65.831 43.7945V38.8966L66.4642 40.5749L61.1934 31.8066H64.1368L68.1755 38.537H66.4813L70.5371 31.8066H73.258L67.9872 40.5749L68.6033 38.8966V43.7945H65.831Z" fill="#F95C5C"/>
<path d="M78.1033 44C77.1449 44 76.2265 43.8744 75.3481 43.6232C74.4696 43.3606 73.7623 43.0238 73.2261 42.6128L74.1673 40.5235C74.6807 40.8889 75.2853 41.1914 75.9813 41.4312C76.6886 41.6595 77.4016 41.7737 78.1204 41.7737C78.668 41.7737 79.1072 41.7223 79.4381 41.6196C79.7803 41.5054 80.0313 41.3513 80.191 41.1572C80.3508 40.9631 80.4306 40.7404 80.4306 40.4893C80.4306 40.1696 80.3051 39.9184 80.0541 39.7358C79.8032 39.5417 79.4723 39.3875 79.0616 39.2734C78.6509 39.1478 78.1945 39.0336 77.6926 38.9309C77.202 38.8167 76.7057 38.6797 76.2037 38.5198C75.7132 38.36 75.2625 38.1545 74.8518 37.9033C74.4411 37.6521 74.1045 37.3211 73.8421 36.91C73.5911 36.499 73.4657 35.9738 73.4657 35.3345C73.4657 34.6495 73.6482 34.0272 74.0133 33.4678C74.3898 32.897 74.9488 32.446 75.6903 32.1149C76.4433 31.7724 77.3845 31.6011 78.514 31.6011C79.2669 31.6011 80.0085 31.6925 80.7387 31.8751C81.4688 32.0464 82.1134 32.309 82.6724 32.6629L81.8168 34.7694C81.2578 34.4497 80.6987 34.2156 80.1397 34.0672C79.5807 33.9074 79.0331 33.8275 78.4969 33.8275C77.9607 33.8275 77.5214 33.8902 77.1792 34.0158C76.8369 34.1414 76.5916 34.307 76.4433 34.5125C76.295 34.7066 76.2208 34.9349 76.2208 35.1975C76.2208 35.5058 76.3463 35.7569 76.5973 35.951C76.8483 36.1337 77.1792 36.2821 77.5899 36.3963C78.0006 36.5104 78.4512 36.6246 78.9418 36.7388C79.4438 36.853 79.94 36.9843 80.4306 37.1327C80.9326 37.2811 81.389 37.4809 81.7997 37.7321C82.2104 37.9832 82.5412 38.3143 82.7922 38.7253C83.0546 39.1364 83.1858 39.6558 83.1858 40.2838C83.1858 40.9574 82.9976 41.5739 82.6211 42.1333C82.2446 42.6928 81.6799 43.1437 80.9269 43.4862C80.1853 43.8287 79.2441 44 78.1033 44Z" fill="#F95C5C"/>
<path d="M87.3944 43.7945V34.0672H83.5611V31.8066H94V34.0672H90.1667V43.7945H87.3944Z" fill="#F95C5C"/>
<path d="M61.2936 6.6191L61.3809 6.78189C61.7011 7.37917 62.4263 7.62975 63.0465 7.35739C63.9304 6.84453 63.0044 5.67794 62.3552 6.27633L62.2308 5.78753C62.1882 5.62013 62.1193 5.46056 62.0266 5.31479C61.9355 5.17142 61.8226 5.04317 61.692 4.93467L61.3039 4.6124C62.1145 4.2701 61.4593 2.929 60.6262 3.52255C60.1124 3.98292 60.0164 4.75194 60.4013 5.32464L60.4682 5.42406L59.1515 5.01648L57.2443 7.65839L57.5869 4.38948C57.6229 3.85889 57.4773 2.60869 56.6072 1.85256C56.9043 2.17824 57.4119 3.03237 57.0656 3.84344L56.4926 4.77573L56.7243 8.03473L56.3973 4.71578L56.9591 3.80618C57.0622 3.47651 57.07 2.55027 56.2766 1.4826C56.5081 1.93125 56.9059 2.97136 56.6451 3.54261L55.7973 4.38471L55.7179 8.58383L55.6852 4.33071L56.3257 3.14996C56.3318 2.49263 56.1525 0.942369 55.3858 0C55.6958 0.570715 56.2223 1.9847 55.8489 3.07491C55.5196 3.27225 54.8339 3.91237 54.7254 4.89411C54.6169 5.87585 54.7229 9.29543 54.7042 9.25835L54.6081 4.26163C55.095 3.46582 55.895 1.5686 55.2004 0.34623C55.3082 1.11932 55.1141 2.93743 53.4751 4.02512L53.3236 10.1088L52.9249 4.63117C53.4342 3.80871 54.4384 1.94051 54.3808 1.04736C54.2438 1.55742 53.4513 3.04144 51.3763 4.89699L51.3506 6.58474C51.1187 7.21636 50.8572 8.67442 51.6656 9.45369L52.433 10.6804C51.9412 10.6356 48.9861 9.42456 49.1129 8.09196L49.5525 5.63437L50.5819 2.23854C50.3139 2.97583 49.5712 4.6993 48.7446 5.6949C47.918 6.69051 47.8677 7.82016 47.9459 8.26054C48.1198 8.25531 48.4439 8.37675 48.3493 8.90435C48.2546 9.43195 50.5851 11.4816 50.6896 11.7567C50.2969 11.783 47.0704 9.97722 45.8872 8.01382L45.4108 7.54555L45.1816 6.5782C44.7092 5.99036 43.7782 4.77657 43.8311 4.62166C43.745 4.87075 43.8071 5.64121 44.7439 6.7327C44.7232 6.87728 44.7569 7.26721 45.0573 7.67034C44.7034 8.20707 44.377 9.46414 45.9023 10.1986L49.5378 12.4972L45.3017 10.5978C44.8681 10.2392 43.8878 9.4983 43.4346 9.40369L41.1362 7.31353C41.0632 7.43291 41.3634 8.07197 43.1482 9.67323C42.8504 10.3025 42.7181 11.5734 44.5716 11.623L48.3949 13.1887L42.7868 12.5899L42.2144 12.792L41.7097 12.6332L39.9141 13.0611L41.8384 13.0183C41.9522 13.2651 46.7898 13.5587 47.4044 13.776C46.7779 13.8536 40.9442 14.341 40.4458 14.6517L40.9103 16.0414L40.7746 17.3248L39.6289 18.7961C37.2507 20.2691 31.5 22.979 26.4665 22.7993C25.9158 22.7796 25.4344 23.2079 25.4391 23.7594C25.4424 24.1322 25.6697 24.4732 26.035 24.5462C29.5866 25.2553 37.0292 21.9821 40.4863 20.1524L42.2893 19.7236L43.4975 20.141L44.5476 21.1533C45.0366 20.8277 47.9867 15.494 48.3208 14.9526C48.2562 15.6076 46.427 20.3581 46.6003 20.5666L45.7496 22.312L46.8913 20.8471L46.962 20.3175L47.3848 19.8783L49.3963 14.5448L49.0052 18.6509C48.2673 20.3704 49.4629 20.7856 50.1529 20.7783C50.8354 23.0899 51.2818 23.6348 51.4196 23.6182L50.5155 20.6297C50.6219 20.1744 50.3714 18.9632 50.2328 18.4145L50.3682 13.7631L50.8443 18.0326C50.8591 19.7405 52.1242 19.972 52.7548 19.8743C52.9896 20.3197 53.325 20.5152 53.4634 20.5573C54.0468 21.8765 54.7115 22.2586 54.9712 22.2849C54.8099 22.2679 54.1145 20.9024 53.7867 20.2214L53.016 19.603L52.7972 18.9687C51.536 17.0555 51.3378 13.2864 51.5272 12.9376C51.7298 13.1495 52.5248 16.2006 53.0379 16.3365C53.551 16.4724 53.5231 16.8208 53.445 16.9779C53.8069 17.2355 54.8411 17.6662 56.0829 17.329C57.3246 16.9918 59.1836 17.0387 59.9579 17.1043L56.4782 16.6142L54.0887 15.9796C52.8402 15.5333 53.0249 12.2869 53.1923 11.8174L54.1013 12.9005C54.6668 13.9352 55.7974 14.3314 56.292 14.4002L57.9093 15.2541C60.4492 14.1358 62.1146 14.0359 62.6298 14.1257C61.8531 13.6959 59.7539 13.8276 58.8014 13.9471L54.1439 11.2088L59.5771 13.6987C61.2444 12.6558 62.9567 13.2454 63.6045 13.6706C62.8015 12.518 60.7625 12.4503 59.8433 12.5605L55.3656 10.2944C55.3403 10.2616 58.3995 11.8711 59.3257 12.1861C60.2518 12.501 61.1153 12.1429 61.4313 11.9244C62.5666 12.0424 63.6123 13.1219 63.9932 13.6468C63.4718 12.5464 62.1573 11.7277 61.5653 11.4558L60.236 11.5444L56.4512 9.5974L60.2349 11.4188L61.348 10.9973C61.9703 10.9995 62.7351 11.8031 63.0397 12.2047C62.4172 11.0268 61.5833 10.643 61.2441 10.5984L60.1913 10.7292L57.3222 8.86992L60.1778 10.6165L61.2557 10.485C62.1292 10.5101 62.6809 11.3357 62.8476 11.7454C62.5368 10.6289 61.4771 9.96779 60.9861 9.77677L57.7846 8.54154L61.0843 8.07822L61.2936 6.6191Z" fill="#F95C5C"/>
</svg>
