<svg width="72" height="61" viewBox="0 0 72 61" fill="none" xmlns="http://www.w3.org/2000/svg">
<path d="M4.23633 16.6556L13.8034 24.628C14.435 25.1546 15.2313 25.4428 16.0535 25.4428H55.6868C56.5093 25.4428 57.3054 25.1546 57.937 24.628L67.5042 16.6556M16.5384 37.7449H16.5736M55.2021 37.7449H55.2373M22.3754 4.35352H49.3653C51.8879 4.35352 54.2172 5.70523 55.4685 7.89553L65.6518 25.7159C66.8655 27.8403 67.5042 30.2445 67.5042 32.6915V53.5618C67.5042 55.5031 65.9306 57.0767 63.9893 57.0767H60.4744C58.5332 57.0767 56.9595 55.5031 56.9595 53.5618V50.047H14.781V53.5618C14.781 55.5031 13.2073 57.0767 11.2661 57.0767H7.75121C5.81001 57.0767 4.23633 55.5031 4.23633 53.5618V32.6915C4.23633 30.2445 4.87484 27.8403 6.08878 25.7159L16.2718 7.89553C17.5234 5.70523 19.8527 4.35352 22.3754 4.35352ZM18.2959 37.7449C18.2959 38.7153 17.509 39.5023 16.5384 39.5023C15.5678 39.5023 14.781 38.7153 14.781 37.7449C14.781 36.7744 15.5678 35.9874 16.5384 35.9874C17.509 35.9874 18.2959 36.7744 18.2959 37.7449ZM56.9595 37.7449C56.9595 38.7153 56.1726 39.5023 55.2021 39.5023C54.2316 39.5023 53.4447 38.7153 53.4447 37.7449C53.4447 36.7744 54.2316 35.9874 55.2021 35.9874C56.1726 35.9874 56.9595 36.7744 56.9595 37.7449Z" stroke="url(#paint0_linear_39_43)" stroke-width="7.02976" stroke-linecap="round" stroke-linejoin="round"/>
<defs>
<linearGradient id="paint0_linear_39_43" x1="23.3386" y1="-61.5505" x2="108.728" y2="36.7677" gradientUnits="userSpaceOnUse">
<stop stop-color="#FFABAB"/>
<stop offset="1" stop-color="#FF2C2C"/>
</linearGradient>
</defs>
</svg>
