<svg width="74" height="74" viewBox="0 0 74 74" fill="none" xmlns="http://www.w3.org/2000/svg">
<path d="M70.333 0.333008H56.9997C56.1156 0.333008 55.2678 0.684197 54.6427 1.30932C54.0175 1.93444 53.6663 2.78229 53.6663 3.66634V26.9997H46.9997V20.333C46.9999 19.7648 46.8549 19.2059 46.5784 18.7094C46.3019 18.213 45.9031 17.7955 45.4198 17.4966C44.9365 17.1977 44.3848 17.0272 43.8172 17.0015C43.2495 16.9758 42.6847 17.0957 42.1763 17.3497L26.9997 24.9397V20.333C26.9999 19.7648 26.8549 19.2059 26.5784 18.7094C26.3019 18.213 25.9031 17.7955 25.4198 17.4966C24.9365 17.1977 24.3848 17.0272 23.8172 17.0015C23.2495 16.9758 22.6847 17.0957 22.1763 17.3497L2.17634 27.3497C1.62223 27.6266 1.15624 28.0524 0.830639 28.5793C0.505041 29.1063 0.33272 29.7136 0.333008 30.333V70.333C0.333008 71.2171 0.684198 72.0649 1.30932 72.69C1.93444 73.3152 2.78229 73.6663 3.66634 73.6663H70.333C71.2171 73.6663 72.0649 73.3152 72.69 72.69C73.3152 72.0649 73.6663 71.2171 73.6663 70.333V3.66634C73.6663 2.78229 73.3152 1.93444 72.69 1.30932C72.0649 0.684197 71.2171 0.333008 70.333 0.333008ZM66.9997 6.99967V13.6663H60.333V6.99967H66.9997ZM6.99967 66.9997V32.393L20.333 25.7263V30.333C20.3327 30.9013 20.4778 31.4601 20.7543 31.9566C21.0308 32.453 21.4296 32.8705 21.9129 33.1694C22.3962 33.4684 22.9479 33.6388 23.5155 33.6645C24.0832 33.6902 24.648 33.5704 25.1563 33.3163L40.333 25.7263V30.333C40.333 31.2171 40.6842 32.0649 41.3093 32.69C41.9344 33.3152 42.7823 33.6663 43.6663 33.6663H56.9997C57.8837 33.6663 58.7316 33.3152 59.3567 32.69C59.9818 32.0649 60.333 31.2171 60.333 30.333V20.333H66.9997V66.9997H6.99967ZM13.6663 40.333H23.6663V46.9997H13.6663V40.333ZM30.333 40.333H43.6663V46.9997H30.333V40.333ZM50.333 40.333H60.333V46.9997H50.333V40.333ZM13.6663 53.6663H23.6663V60.333H13.6663V53.6663ZM30.333 53.6663H43.6663V60.333H30.333V53.6663ZM50.333 53.6663H60.333V60.333H50.333V53.6663Z" fill="url(#paint0_linear_33_1815)"/>
<defs>
<linearGradient id="paint0_linear_33_1815" x1="22.4744" y1="-91.3337" x2="142.323" y2="23.6625" gradientUnits="userSpaceOnUse">
<stop stop-color="#FFABAB"/>
<stop offset="1" stop-color="#FF2C2C"/>
</linearGradient>
</defs>
</svg>
