<svg width="69" height="73" viewBox="0 0 69 73" fill="none" xmlns="http://www.w3.org/2000/svg">
<path d="M34.4313 4V18.4444M34.4313 18.4444V54.5556M34.4313 18.4444L23.5981 7.61111M34.4313 18.4444L45.2646 7.61111M34.4313 54.5556V69M34.4313 54.5556L23.5981 65.3889M34.4313 54.5556L45.2646 65.3889M6.28934 20.25L18.7986 27.4722M18.7986 27.4722L50.0717 45.5278M18.7986 27.4722L4 31.4376M18.7986 27.4722L14.8333 12.6736M50.0717 45.5278L62.581 52.75M50.0717 45.5278L54.0371 60.3265M50.0717 45.5278L64.8704 41.5624M6.291 52.75L18.8002 45.5278M18.8002 45.5278L50.0736 27.4722M18.8002 45.5278L4.00166 41.5624M18.8002 45.5278L14.835 60.3265M50.0736 27.4722L62.5828 20.25M50.0736 27.4722L54.0385 12.6736M50.0736 27.4722L64.8719 31.4376" stroke="url(#paint0_linear_33_1833)" stroke-width="6.45652" stroke-linecap="round" stroke-linejoin="round"/>
<defs>
<linearGradient id="paint0_linear_33_1833" x1="22.3789" y1="-77.25" x2="128.094" y2="17.7428" gradientUnits="userSpaceOnUse">
<stop stop-color="#FFABAB"/>
<stop offset="1" stop-color="#FF2C2C"/>
</linearGradient>
</defs>
</svg>
