<svg width="55" height="64" viewBox="0 0 55 64" fill="none" xmlns="http://www.w3.org/2000/svg">
<path d="M41.5741 0.141602C34.6132 0.141602 28.9716 7.10629 28.9716 14.967C28.9716 19.7511 31.2213 23.9699 33.971 26.5966C36.3842 28.904 37.8668 30.6808 38.163 34.5362V59.9567C38.163 61.72 39.5936 63.1506 41.3569 63.1506H41.7896C43.5528 63.1506 44.9834 61.72 44.9834 59.9567V34.5361C45.2795 30.6807 46.7621 28.9039 49.1754 26.5965C51.9251 23.9698 54.1749 19.751 54.1749 14.9669C54.1746 7.10629 48.531 0.141602 41.5741 0.141602Z" fill="url(#paint0_linear_39_41)"/>
<path d="M19.0171 3.16246V16.6226C19.0171 17.4821 18.321 18.1801 17.4614 18.1801H17.0441C16.1865 18.1801 15.4884 17.4821 15.4884 16.6226V3.10093C15.4884 0.883802 13.9963 0.218517 12.5637 0.218517C11.1331 0.218517 9.64093 0.883802 9.64093 3.10093V16.6226C9.64093 17.4821 8.94291 18.1801 8.08343 18.1801H7.66809C6.80861 18.1801 6.11244 17.4821 6.11244 16.6226V3.16246C6.11244 -0.80833 0.451487 -0.673698 0.451487 3.20664C0.451487 7.85231 0.451487 16.0592 0.451487 16.0592C0.424536 23.1969 2.1302 25.0487 4.9453 27.2734C7.21435 29.0656 9.15446 30.0885 9.15446 34.538V59.9566C9.15446 61.7198 10.5831 63.1505 12.3483 63.1505H12.781C14.5443 63.1505 15.9749 61.7198 15.9749 59.9566V34.538C15.9749 30.0885 17.9132 29.0655 20.1822 27.2734C22.9993 25.0487 24.7048 23.1969 24.6779 16.0592C24.6779 16.0592 24.6779 7.85231 24.6779 3.20664C24.678 -0.673698 19.0171 -0.80833 19.0171 3.16246Z" fill="url(#paint1_linear_39_41)"/>
<defs>
<linearGradient id="paint0_linear_39_41" x1="16.6718" y1="-78.6196" x2="117.693" y2="4.02702" gradientUnits="userSpaceOnUse">
<stop stop-color="#FFABAB"/>
<stop offset="1" stop-color="#FF2C2C"/>
</linearGradient>
<linearGradient id="paint1_linear_39_41" x1="16.6718" y1="-78.6196" x2="117.693" y2="4.02702" gradientUnits="userSpaceOnUse">
<stop stop-color="#FFABAB"/>
<stop offset="1" stop-color="#FF2C2C"/>
</linearGradient>
</defs>
</svg>
