<svg width="80" height="52" viewBox="0 0 80 52" fill="none" xmlns="http://www.w3.org/2000/svg">
<path d="M20.1229 28.7806C13.9795 28.7806 8.99823 33.7609 8.99823 39.9062C8.99823 46.0497 13.9795 51.03 20.1229 51.03C26.2673 51.03 31.2485 46.0497 31.2485 39.9062C31.2487 33.7609 26.2673 28.7806 20.1229 28.7806ZM20.1229 44.5991C17.5309 44.5991 15.4293 42.4975 15.4293 39.9064C15.4293 37.3144 17.5309 35.2128 20.1229 35.2128C22.716 35.2128 24.8167 37.3144 24.8167 39.9064C24.8167 42.4975 22.716 44.5991 20.1229 44.5991Z" fill="url(#paint0_linear_39_36)"/>
<path d="M60.6949 28.7806C54.5505 28.7806 49.5702 33.7609 49.5702 39.9062C49.5702 46.0497 54.5505 51.03 60.6949 51.03C66.8392 51.03 71.8195 46.0497 71.8195 39.9062C71.8195 33.7609 66.8392 28.7806 60.6949 28.7806ZM60.6949 44.5991C58.1028 44.5991 56.0013 42.4975 56.0013 39.9064C56.0013 37.3144 58.1028 35.2128 60.6949 35.2128C63.287 35.2128 65.3895 37.3144 65.3895 39.9064C65.3897 42.4975 63.287 44.5991 60.6949 44.5991Z" fill="url(#paint1_linear_39_36)"/>
<path d="M78.1198 19.2796L72.3614 12.2196C70.7761 10.2763 68.4014 9.14941 65.8931 9.14941H51.5348V21.256H48.2609V6.20441H62.3316V0.969727H42.3711V7.18551H0V21.2561L26.4803 26.2819C31.6066 28.6847 35.1744 33.8802 35.1744 39.9066C35.1744 40.0174 35.1598 40.1228 35.1588 40.2327H45.6595C45.6584 40.123 45.643 40.0174 45.643 39.9066C45.643 31.6069 52.3958 24.8541 60.6945 24.8541C68.2131 24.8541 74.4434 30.4013 75.5516 37.6146H77.2175C78.7541 37.6146 79.9998 36.3688 79.9998 34.8322V24.555C80 22.6322 79.3358 20.7686 78.1198 19.2796ZM11.5333 19.8766L8.83359 19.3975V11.1122H11.5333V19.8766ZM23.0678 21.9286L20.3681 21.4474V11.1122H23.0678V21.9286ZM34.6012 23.9908L31.9016 23.5108V11.1124H34.6012V23.9908ZM57.6203 20.4044V13.8596H66.0899C66.8317 13.8596 67.525 14.1886 67.9939 14.7628L72.5955 20.4044H57.6203Z" fill="url(#paint2_linear_39_36)"/>
<defs>
<linearGradient id="paint0_linear_39_36" x1="24.1541" y1="-61.6056" x2="99.0869" y2="53.2934" gradientUnits="userSpaceOnUse">
<stop stop-color="#FFABAB"/>
<stop offset="1" stop-color="#FF2C2C"/>
</linearGradient>
<linearGradient id="paint1_linear_39_36" x1="24.1541" y1="-61.6056" x2="99.0869" y2="53.2934" gradientUnits="userSpaceOnUse">
<stop stop-color="#FFABAB"/>
<stop offset="1" stop-color="#FF2C2C"/>
</linearGradient>
<linearGradient id="paint2_linear_39_36" x1="24.1541" y1="-61.6056" x2="99.0869" y2="53.2934" gradientUnits="userSpaceOnUse">
<stop stop-color="#FFABAB"/>
<stop offset="1" stop-color="#FF2C2C"/>
</linearGradient>
</defs>
</svg>
