<svg width="68" height="76" viewBox="0 0 68 76" fill="none" xmlns="http://www.w3.org/2000/svg">
<path d="M63.4271 21.0097L33.9997 37.9998M33.9997 37.9998L4.5604 20.9826M33.9997 37.9998L34 69.5765M21.7201 11.6858L48.0341 27.4742M30.4914 4.94012C32.6625 3.68663 35.3374 3.68663 37.5085 4.94012L60.8764 18.4315C63.0474 19.685 64.3849 22.0015 64.3849 24.5084V51.4911C64.3849 53.998 63.0474 56.3146 60.8764 57.5682L37.5085 71.0592C35.3374 72.3128 32.6625 72.3128 30.4914 71.0592L7.12376 57.5682C4.95265 56.3146 3.61523 53.998 3.61523 51.4911V24.5084C3.61523 22.0015 4.95265 19.685 7.12376 18.4315L30.4914 4.94012Z" stroke="url(#paint0_linear_33_1839)" stroke-width="7.01706" stroke-linecap="round" stroke-linejoin="round"/>
<defs>
<linearGradient id="paint0_linear_33_1839" x1="21.9633" y1="-80.9993" x2="131.888" y2="13.2606" gradientUnits="userSpaceOnUse">
<stop stop-color="#FFABAB"/>
<stop offset="1" stop-color="#FF2C2C"/>
</linearGradient>
</defs>
</svg>
