<svg width="70" height="59" viewBox="0 0 70 59" fill="none" xmlns="http://www.w3.org/2000/svg">
<path d="M51.6667 54.667C51.6667 49.1441 44.2047 44.667 35 44.667C25.7953 44.667 18.3333 49.1441 18.3333 54.667M65 44.6682C65 40.5676 60.8863 37.0434 55 35.5003M5 44.6682C5 40.5676 9.11365 37.0434 15 35.5003M55 22.1207C57.0458 20.2896 58.3333 17.6287 58.3333 14.667C58.3333 9.14414 53.8562 4.66699 48.3333 4.66699C45.7722 4.66699 43.4359 5.62984 41.6667 7.2133M15 22.1207C12.9542 20.2896 11.6667 17.6287 11.6667 14.667C11.6667 9.14414 16.1438 4.66699 21.6667 4.66699C24.2278 4.66699 26.5641 5.62984 28.3333 7.2133M35 34.667C29.4772 34.667 25 30.1898 25 24.667C25 19.1441 29.4772 14.667 35 14.667C40.5228 14.667 45 19.1441 45 24.667C45 30.1898 40.5228 34.667 35 34.667Z" stroke="url(#paint0_linear_39_39)" stroke-width="8.08496" stroke-linecap="round" stroke-linejoin="round"/>
<defs>
<linearGradient id="paint0_linear_39_39" x1="23.1156" y1="-57.833" x2="104.095" y2="35.4069" gradientUnits="userSpaceOnUse">
<stop stop-color="#FFABAB"/>
<stop offset="1" stop-color="#FF2C2C"/>
</linearGradient>
</defs>
</svg>
