<svg width="68" height="68" viewBox="0 0 68 68" fill="none" xmlns="http://www.w3.org/2000/svg">
<path d="M4.00033 60.667C2.15939 60.667 0.666992 62.1593 0.666992 64.0003C0.666992 65.8413 2.15939 67.3337 4.00033 67.3337V60.667ZM64.0003 67.3337C65.8413 67.3337 67.3337 65.8413 67.3337 64.0003C67.3337 62.1593 65.8413 60.667 64.0003 60.667V67.3337ZM17.3337 50.667C15.4927 50.667 14.0003 52.1593 14.0003 54.0003C14.0003 55.8413 15.4927 57.3337 17.3337 57.3337V50.667ZM40.667 57.3337C42.508 57.3337 44.0003 55.8413 44.0003 54.0003C44.0003 52.1593 42.508 50.667 40.667 50.667V57.3337ZM24.0003 40.667C22.1594 40.667 20.667 42.1593 20.667 44.0003C20.667 45.8413 22.1594 47.3337 24.0003 47.3337V40.667ZM34.0003 47.3337C35.8413 47.3337 37.3337 45.8413 37.3337 44.0003C37.3337 42.1593 35.8413 40.667 34.0003 40.667V47.3337ZM20.667 10.667V7.33366C18.8261 7.33366 17.3337 8.82606 17.3337 10.667H20.667ZM37.3337 10.667H40.667C40.667 8.82606 39.1747 7.33366 37.3337 7.33366V10.667ZM37.3337 34.0003V37.3337C39.1747 37.3337 40.667 35.8413 40.667 34.0003H37.3337ZM20.667 34.0003H17.3337C17.3337 35.8413 18.8261 37.3337 20.667 37.3337V34.0003ZM24.0003 10.667V14.0003C25.5299 14.0003 26.8632 12.9593 27.2341 11.4755L24.0003 10.667ZM32.3337 4.00033L35.5673 3.19186C35.1967 1.70799 33.8633 0.666992 32.3337 0.666992V4.00033ZM25.667 4.00033V0.666992C24.1374 0.666992 22.8042 1.70799 22.4332 3.19186L25.667 4.00033ZM34.0003 10.667L30.7667 11.4755C31.1373 12.9593 32.4707 14.0003 34.0003 14.0003V10.667ZM37.3337 17.3337C35.4927 17.3337 34.0003 18.8261 34.0003 20.667C34.0003 22.5079 35.4927 24.0003 37.3337 24.0003V17.3337ZM47.6387 61.1453C46.0617 62.0953 45.5537 64.144 46.504 65.7207C47.454 67.2977 49.5023 67.8057 51.0793 66.8553L47.6387 61.1453ZM4.00033 67.3337H64.0003V60.667H4.00033V67.3337ZM17.3337 57.3337H40.667V50.667H17.3337V57.3337ZM24.0003 47.3337H34.0003V40.667H24.0003V47.3337ZM34.0003 10.667V34.0003H40.667V10.667H34.0003ZM37.3337 30.667H20.667V37.3337H37.3337V30.667ZM24.0003 34.0003V10.667H17.3337V34.0003H24.0003ZM20.667 14.0003H24.0003V7.33366H20.667V14.0003ZM27.2341 11.4755L28.9007 4.80879L22.4332 3.19186L20.7665 9.85853L27.2341 11.4755ZM25.667 7.33366H32.3337V0.666992H25.667V7.33366ZM29.1 4.80879L30.7667 11.4755L37.234 9.85853L35.5673 3.19186L29.1 4.80879ZM34.0003 14.0003H37.3337V7.33366H34.0003V14.0003ZM37.3337 24.0003C48.3793 24.0003 57.3337 32.9547 57.3337 44.0003H64.0003C64.0003 29.2727 52.0613 17.3337 37.3337 17.3337V24.0003ZM57.3337 44.0003C57.3337 51.2717 53.4553 57.6403 47.6387 61.1453L51.0793 66.8553C58.8147 62.1943 64.0003 53.7047 64.0003 44.0003H57.3337Z" fill="url(#paint0_linear_33_1818)"/>
<defs>
<linearGradient id="paint0_linear_33_1818" x1="20.7955" y1="-82.6671" x2="129.75" y2="21.8749" gradientUnits="userSpaceOnUse">
<stop stop-color="#FFABAB"/>
<stop offset="1" stop-color="#FF2C2C"/>
</linearGradient>
</defs>
</svg>
