<svg width="82" height="71" viewBox="0 0 82 71" fill="none" xmlns="http://www.w3.org/2000/svg">
<path d="M4 66.6667H11.3725M11.3725 66.6667H48.2353M11.3725 66.6667V15.7968C11.3725 11.6678 11.3725 9.60174 12.1761 8.02466C12.8829 6.63743 14.01 5.51039 15.3972 4.80356C16.9743 4 19.0403 4 23.1693 4H36.4399C40.569 4 42.6306 4 44.2077 4.80356C45.5949 5.51039 46.7257 6.63743 47.4325 8.02466C48.2353 9.6002 48.2353 11.6637 48.2353 15.7847V37.1765M48.2353 66.6667H70.3529M48.2353 66.6667V37.1765M70.3529 66.6667H77.7255M70.3529 66.6667V37.1765C70.3529 33.7413 70.3526 32.0246 69.7914 30.6697C69.0431 28.8632 67.6092 27.4271 65.8027 26.6788C64.4478 26.1176 62.7283 26.1176 59.2932 26.1176C55.858 26.1176 54.1404 26.1176 52.7855 26.6788C50.9791 27.4271 49.5448 28.8632 48.7965 30.6697C48.2353 32.0246 48.2353 33.7413 48.2353 37.1765M22.4314 29.8039H37.1765M22.4314 18.7451H37.1765" stroke="url(#paint0_linear_39_32)" stroke-width="7.37255" stroke-linecap="round" stroke-linejoin="round"/>
<defs>
<linearGradient id="paint0_linear_39_32" x1="26.2597" y1="-74.3334" x2="128.016" y2="40.5321" gradientUnits="userSpaceOnUse">
<stop stop-color="#FFABAB"/>
<stop offset="1" stop-color="#FF2C2C"/>
</linearGradient>
</defs>
</svg>
