<svg width="150" height="30" viewBox="0 0 150 30" fill="none" xmlns="http://www.w3.org/2000/svg">
<path d="M15 0L19.4084 8.93237L29.2658 10.3647L22.1329 17.3176L23.8168 27.1353L15 22.5L6.18322 27.1353L7.86708 17.3176L0.734152 10.3647L10.5916 8.93237L15 0Z" fill="#FFE77E"/>
<path d="M45 0L49.4084 8.93237L59.2658 10.3647L52.1329 17.3176L53.8168 27.1353L45 22.5L36.1832 27.1353L37.8671 17.3176L30.7342 10.3647L40.5916 8.93237L45 0Z" fill="#FFE77E"/>
<path d="M75 0L79.4084 8.93237L89.2658 10.3647L82.1329 17.3176L83.8168 27.1353L75 22.5L66.1832 27.1353L67.8671 17.3176L60.7342 10.3647L70.5916 8.93237L75 0Z" fill="#FFE77E"/>
<path d="M105 0L109.408 8.93237L119.266 10.3647L112.133 17.3176L113.817 27.1353L105 22.5L96.1832 27.1353L97.8671 17.3176L90.7342 10.3647L100.592 8.93237L105 0Z" fill="#FFE77E"/>
<path d="M135 0L139.408 8.93237L149.266 10.3647L142.133 17.3176L143.817 27.1353L135 22.5L126.183 27.1353L127.867 17.3176L120.734 10.3647L130.592 8.93237L135 0Z" fill="#FFE77E"/>
</svg>
