<svg width="34" height="34" viewBox="0 0 34 34" fill="none" xmlns="http://www.w3.org/2000/svg">
<path d="M12.8355 4.09536C12.3293 2.82984 11.1036 2 9.74056 2H5.15594C3.41188 2 1.99805 3.4135 1.99805 5.15755C1.99805 19.982 14.016 32 28.8405 32C30.5846 32 31.998 30.586 31.998 28.842L31.9988 24.2566C31.9988 22.8936 31.1692 21.6681 29.9037 21.1619L25.5096 19.4049C24.3728 18.9502 23.0785 19.1548 22.138 19.9386L21.0039 20.8845C19.6795 21.9881 17.7308 21.9004 16.5117 20.6813L13.3184 17.4851C12.0994 16.266 12.0093 14.3189 13.113 12.9945L14.0586 11.8605C14.8424 10.9199 15.0489 9.62527 14.5942 8.48849L12.8355 4.09536Z" stroke="white" stroke-width="3.33333" stroke-linecap="round" stroke-linejoin="round"/>
</svg>
