<svg width="34" height="28" viewBox="0 0 34 28" fill="none" xmlns="http://www.w3.org/2000/svg">
<path d="M3.66667 3.99967L13.8461 11.6868L13.8495 11.6896C14.9797 12.5185 15.5452 12.9332 16.1646 13.0934C16.712 13.235 17.2875 13.235 17.835 13.0934C18.4549 12.933 19.022 12.5171 20.1543 11.6868C20.1543 11.6868 26.6835 6.67624 30.3333 3.99967M2 20.3333V7.66667C2 5.79983 2 4.86571 2.36331 4.15267C2.68289 3.52546 3.19245 3.0159 3.81966 2.69632C4.5327 2.33301 5.46682 2.33301 7.33366 2.33301H26.667C28.5338 2.33301 29.466 2.33301 30.179 2.69632C30.8062 3.0159 31.3175 3.52546 31.637 4.15267C32 4.86501 32 5.798 32 7.66119V20.339C32 22.2022 32 23.1338 31.637 23.8461C31.3175 24.4734 30.8062 24.9838 30.179 25.3034C29.4667 25.6663 28.535 25.6663 26.6718 25.6663H7.32818C5.46499 25.6663 4.532 25.6663 3.81966 25.3034C3.19245 24.9838 2.68289 24.4734 2.36331 23.8461C2 23.1331 2 22.2002 2 20.3333Z" stroke="white" stroke-width="3.33333" stroke-linecap="round" stroke-linejoin="round"/>
</svg>
