<svg width="74" height="71" viewBox="0 0 74 71" fill="none" xmlns="http://www.w3.org/2000/svg">
<path d="M30.3335 56.9997H7.00016V6.99968H63.6668C64.5509 6.99968 65.3987 6.64849 66.0239 6.02336C66.649 5.39824 67.0002 4.5504 67.0002 3.66634C67.0002 2.78229 66.649 1.93444 66.0239 1.30932C65.3987 0.684197 64.5509 0.333008 63.6668 0.333008H3.66683C2.78277 0.333008 1.93493 0.684197 1.30981 1.30932C0.684685 1.93444 0.333496 2.78229 0.333496 3.66634V60.333C0.333496 61.2171 0.684685 62.0649 1.30981 62.69C1.93493 63.3152 2.78277 63.6663 3.66683 63.6663H30.3335C31.2176 63.6663 32.0654 63.3152 32.6905 62.69C33.3156 62.0649 33.6668 61.2171 33.6668 60.333C33.6668 59.449 33.3156 58.6011 32.6905 57.976C32.0654 57.3509 31.2176 56.9997 30.3335 56.9997Z" fill="white"/>
<path d="M73.6671 31.9996C73.6671 26.2533 71.3844 20.7423 67.3211 16.679C63.2578 12.6157 57.7468 10.333 52.0005 10.333C46.9424 10.307 42.0397 12.0791 38.1671 15.333H17.0005C16.1164 15.333 15.2686 15.6841 14.6434 16.3093C14.0183 16.9344 13.6671 17.7822 13.6671 18.6663C13.6671 19.5503 14.0183 20.3982 14.6434 21.0233C15.2686 21.6484 16.1164 21.9996 17.0005 21.9996H32.8338C31.6933 24.0635 30.9579 26.3263 30.6671 28.6663H17.0005C16.1164 28.6663 15.2686 29.0175 14.6434 29.6426C14.0183 30.2677 13.6671 31.1156 13.6671 31.9996C13.6671 32.8837 14.0183 33.7315 14.6434 34.3566C15.2686 34.9818 16.1164 35.333 17.0005 35.333H30.6671C30.9579 37.673 31.6933 39.9358 32.8338 41.9996H17.0005C16.1164 41.9996 15.2686 42.3508 14.6434 42.9759C14.0183 43.6011 13.6671 44.4489 13.6671 45.333C13.6671 46.217 14.0183 47.0649 14.6434 47.69C15.2686 48.3151 16.1164 48.6663 17.0005 48.6663H38.1671L40.3338 50.1663V66.333C40.2838 67.2969 40.5992 68.2442 41.2171 68.9857C41.8351 69.7272 42.71 70.2084 43.6671 70.333C44.0775 70.3234 44.4815 70.2297 44.8542 70.0577C45.2269 69.8857 45.5603 69.639 45.8338 69.333L52.0005 63.6663L58.1671 69.333C58.4407 69.639 58.7741 69.8857 59.1468 70.0577C59.5194 70.2297 59.9235 70.3234 60.3338 70.333C61.291 70.2084 62.1659 69.7272 62.7838 68.9857C63.4017 68.2442 63.7172 67.2969 63.6671 66.333V50.333C66.7223 48.3447 69.2356 45.6285 70.9811 42.4285C72.7266 39.2284 73.6496 35.6447 73.6671 31.9996ZM57.0005 46.1663V59.1663L52.0005 54.4996L47.0005 59.1663V46.1663C44.0854 45.1102 41.5641 43.186 39.7762 40.653C37.9882 38.1201 37.0195 35.1 37.0005 31.9996C37.0005 28.0214 38.5808 24.2061 41.3939 21.393C44.2069 18.58 48.0222 16.9996 52.0005 16.9996C55.9787 16.9996 59.794 18.58 62.6071 21.393C65.4201 24.2061 67.0005 28.0214 67.0005 31.9996C66.9815 35.1 66.0127 38.1201 64.2248 40.653C62.4368 43.186 59.9155 45.1102 57.0005 46.1663Z" fill="white"/>
<path d="M52.0001 40.333C56.6025 40.333 60.3335 36.602 60.3335 31.9996C60.3335 27.3973 56.6025 23.6663 52.0001 23.6663C47.3978 23.6663 43.6668 27.3973 43.6668 31.9996C43.6668 36.602 47.3978 40.333 52.0001 40.333Z" fill="white"/>
</svg>
