<svg width="68" height="68" viewBox="0 0 68 68" fill="none" xmlns="http://www.w3.org/2000/svg">
<path d="M3.99984 60.667C2.1589 60.667 0.666504 62.1593 0.666504 64.0003C0.666504 65.8413 2.1589 67.3337 3.99984 67.3337V60.667ZM63.9998 67.3337C65.8408 67.3337 67.3332 65.8413 67.3332 64.0003C67.3332 62.1593 65.8408 60.667 63.9998 60.667V67.3337ZM17.3332 50.667C15.4922 50.667 13.9998 52.1593 13.9998 54.0003C13.9998 55.8413 15.4922 57.3337 17.3332 57.3337V50.667ZM40.6665 57.3337C42.5075 57.3337 43.9998 55.8413 43.9998 54.0003C43.9998 52.1593 42.5075 50.667 40.6665 50.667V57.3337ZM23.9998 40.667C22.1589 40.667 20.6665 42.1593 20.6665 44.0003C20.6665 45.8413 22.1589 47.3337 23.9998 47.3337V40.667ZM33.9998 47.3337C35.8408 47.3337 37.3332 45.8413 37.3332 44.0003C37.3332 42.1593 35.8408 40.667 33.9998 40.667V47.3337ZM20.6665 10.667V7.33366C18.8256 7.33366 17.3332 8.82606 17.3332 10.667H20.6665ZM37.3332 10.667H40.6665C40.6665 8.82606 39.1742 7.33366 37.3332 7.33366V10.667ZM37.3332 34.0003V37.3337C39.1742 37.3337 40.6665 35.8413 40.6665 34.0003H37.3332ZM20.6665 34.0003H17.3332C17.3332 35.8413 18.8256 37.3337 20.6665 37.3337V34.0003ZM23.9998 10.667V14.0003C25.5294 14.0003 26.8627 12.9593 27.2336 11.4755L23.9998 10.667ZM32.3332 4.00033L35.5668 3.19186C35.1962 1.70799 33.8628 0.666992 32.3332 0.666992V4.00033ZM25.6665 4.00033V0.666992C24.1369 0.666992 22.8037 1.70799 22.4327 3.19186L25.6665 4.00033ZM33.9998 10.667L30.7662 11.4755C31.1368 12.9593 32.4702 14.0003 33.9998 14.0003V10.667ZM37.3332 17.3337C35.4922 17.3337 33.9998 18.8261 33.9998 20.667C33.9998 22.5079 35.4922 24.0003 37.3332 24.0003V17.3337ZM47.6382 61.1453C46.0612 62.0953 45.5532 64.144 46.5035 65.7207C47.4535 67.2977 49.5018 67.8057 51.0788 66.8553L47.6382 61.1453ZM3.99984 67.3337H63.9998V60.667H3.99984V67.3337ZM17.3332 57.3337H40.6665V50.667H17.3332V57.3337ZM23.9998 47.3337H33.9998V40.667H23.9998V47.3337ZM33.9998 10.667V34.0003H40.6665V10.667H33.9998ZM37.3332 30.667H20.6665V37.3337H37.3332V30.667ZM23.9998 34.0003V10.667H17.3332V34.0003H23.9998ZM20.6665 14.0003H23.9998V7.33366H20.6665V14.0003ZM27.2336 11.4755L28.9002 4.80879L22.4327 3.19186L20.766 9.85853L27.2336 11.4755ZM25.6665 7.33366H32.3332V0.666992H25.6665V7.33366ZM29.0995 4.80879L30.7662 11.4755L37.2335 9.85853L35.5668 3.19186L29.0995 4.80879ZM33.9998 14.0003H37.3332V7.33366H33.9998V14.0003ZM37.3332 24.0003C48.3788 24.0003 57.3332 32.9547 57.3332 44.0003H63.9998C63.9998 29.2727 52.0608 17.3337 37.3332 17.3337V24.0003ZM57.3332 44.0003C57.3332 51.2717 53.4548 57.6403 47.6382 61.1453L51.0788 66.8553C58.8142 62.1943 63.9998 53.7047 63.9998 44.0003H57.3332Z" fill="white"/>
</svg>
