<svg width="66" height="66" viewBox="0 0 66 66" fill="none" xmlns="http://www.w3.org/2000/svg">
<path d="M63.0003 0H51.0003C50.2046 0 49.4415 0.316072 48.8789 0.878684C48.3163 1.4413 48.0002 2.20436 48.0002 3.00002V24.0001H42.0002V18.0001C42.0005 17.4887 41.8699 16.9857 41.6211 16.5389C41.3722 16.0921 41.0132 15.7163 40.5783 15.4473C40.1433 15.1783 39.6468 15.0249 39.1359 15.0017C38.625 14.9786 38.1167 15.0865 37.6592 15.3151L24.0001 22.1461V18.0001C24.0004 17.4887 23.8698 16.9857 23.621 16.5389C23.3721 16.0921 23.0132 15.7163 22.5782 15.4473C22.1433 15.1783 21.6467 15.0249 21.1358 15.0017C20.6249 14.9786 20.1166 15.0865 19.6591 15.3151L1.65901 24.3151C1.16031 24.5643 0.740911 24.9476 0.447871 25.4218C0.154831 25.8961 -0.000259462 26.4426 3.25838e-07 27.0001V63.0003C3.25838e-07 63.796 0.316072 64.559 0.878684 65.1217C1.4413 65.6843 2.20436 66.0003 3.00002 66.0003H63.0003C63.796 66.0003 64.559 65.6843 65.1217 65.1217C65.6843 64.559 66.0003 63.796 66.0003 63.0003V3.00002C66.0003 2.20436 65.6843 1.4413 65.1217 0.878684C64.559 0.316072 63.796 0 63.0003 0ZM60.0003 6.00003V12.0001H54.0003V6.00003H60.0003ZM6.00003 60.0003V28.8541L18.0001 22.8541V27.0001C17.9999 27.5116 18.1304 28.0146 18.3792 28.4614C18.6281 28.9082 18.9871 29.2839 19.422 29.5529C19.857 29.822 20.3535 29.9753 20.8644 29.9985C21.3753 30.0216 21.8836 29.9138 22.3411 29.6852L36.0002 22.8541V27.0001C36.0002 27.7958 36.3163 28.5589 36.8789 29.1215C37.4415 29.6841 38.2045 30.0002 39.0002 30.0002H51.0003C51.7959 30.0002 52.559 29.6841 53.1216 29.1215C53.6842 28.5589 54.0003 27.7958 54.0003 27.0001V18.0001H60.0003V60.0003H6.00003ZM12.0001 36.0002H21.0001V42.0002H12.0001V36.0002ZM27.0001 36.0002H39.0002V42.0002H27.0001V36.0002ZM45.0002 36.0002H54.0003V42.0002H45.0002V36.0002ZM12.0001 48.0002H21.0001V54.0003H12.0001V48.0002ZM27.0001 48.0002H39.0002V54.0003H27.0001V48.0002ZM45.0002 48.0002H54.0003V54.0003H45.0002V48.0002Z" fill="white"/>
</svg>
