<svg width="66" height="75" viewBox="0 0 66 75" fill="none" xmlns="http://www.w3.org/2000/svg">
<mask id="path-1-outside-1_52_239" maskUnits="userSpaceOnUse" x="-0.221191" y="0.389648" width="66" height="74" fill="black">
<rect fill="white" x="-0.221191" y="0.389648" width="66" height="74"/>
<path fill-rule="evenodd" clip-rule="evenodd" d="M44.0591 44.0017C39.9065 44.0017 36.54 47.3682 36.54 51.521C36.54 55.6737 39.9065 59.0402 44.0591 59.0402C48.212 59.0402 51.5784 55.6737 51.5784 51.521C51.5784 47.3682 48.212 44.0017 44.0591 44.0017ZM40.2995 51.521C40.2995 49.4445 41.9829 47.7613 44.0591 47.7613C46.1356 47.7613 47.8188 49.4445 47.8188 51.521C47.8188 53.5974 46.1356 55.2806 44.0591 55.2806C41.9829 55.2806 40.2995 53.5974 40.2995 51.521Z"/>
<path fill-rule="evenodd" clip-rule="evenodd" d="M42.7178 29.9031C40.0844 29.9031 37.754 31.7217 37.2381 34.332L37.0895 35.0843C36.7366 36.8704 34.776 38.0438 32.8646 37.4L32.1185 37.1488C29.6263 36.3094 26.8372 37.2902 25.483 39.5641L24.1419 41.8161C22.7749 44.1116 23.2949 47.0186 25.3343 48.7279L25.9319 49.2287C27.3836 50.4455 27.3836 52.5964 25.9319 53.8132L25.3343 54.314C23.2949 56.0233 22.7749 58.9303 24.1419 61.2257L25.4829 63.4777C26.8371 65.7517 29.6264 66.7324 32.1187 65.8931L32.8645 65.6418C34.776 64.9979 36.7366 66.1713 37.0895 67.9575L37.2382 68.7098C37.754 71.3201 40.0844 73.1388 42.7178 73.1388H45.4001C48.0337 73.1388 50.3641 71.3201 50.8799 68.7096L51.0284 67.9577C51.3813 66.1715 53.3419 64.9979 55.2535 65.6418L55.9994 65.8931C58.4917 66.7324 61.2809 65.7517 62.6352 63.4777L63.9762 61.2259C65.3432 58.9304 64.8231 56.0233 62.7837 54.314L62.1861 53.8132C60.7343 52.5966 60.7343 50.4453 62.1861 49.2287L62.7837 48.7279C64.8231 47.0186 65.3432 44.1116 63.9762 41.8161L62.6352 39.5641C61.2809 37.2902 58.4919 36.3094 55.9996 37.1487L55.2533 37.4C53.3419 38.0438 51.3813 36.8703 51.0284 35.0842L50.8799 34.3322C50.3641 31.7218 48.0337 29.9031 45.4001 29.9031H42.7178ZM40.9265 35.0608C41.079 34.2893 41.7997 33.6627 42.7178 33.6627H45.4001C46.3184 33.6627 47.0391 34.2894 47.1915 35.0609L47.34 35.8128C48.1549 39.9377 52.5007 42.2942 56.4532 40.963L57.1995 40.7117C58.0623 40.4212 58.9833 40.7796 59.4049 41.4877L60.746 43.7397C61.1548 44.4263 61.0161 45.3039 60.3687 45.8465L59.7713 46.3472C56.5265 49.0665 56.5265 53.9754 59.7713 56.6948L60.3687 57.1954C61.0161 57.7381 61.1548 58.6156 60.746 59.3023L59.4049 61.5541C58.9833 62.2622 58.0623 62.6207 57.1995 62.3301L56.4534 62.0788C52.5007 60.7475 48.1549 63.104 47.34 67.2291L47.1915 67.981C47.0391 68.7525 46.3184 69.3792 45.4001 69.3792H42.7178C41.7997 69.3792 41.079 68.7527 40.9265 67.981L40.7778 67.2287C39.9628 63.1038 35.617 60.7475 31.6644 62.0789L30.9186 62.3301C30.0558 62.6207 29.1349 62.2622 28.7132 61.5541L27.3721 59.3021C26.9632 58.6156 27.102 57.7381 27.7493 57.1954L28.3469 56.6946C31.5914 53.9752 31.5914 49.0667 28.3469 46.3473L27.7493 45.8465C27.102 45.3039 26.9632 44.4263 27.3721 43.7398L28.7132 41.4877C29.1349 40.7796 30.0558 40.4212 30.9186 40.7118L31.6646 40.963C35.6171 42.2942 39.9628 39.9379 40.7778 35.8131L40.9265 35.0608Z"/>
<path fill-rule="evenodd" clip-rule="evenodd" d="M18.2425 12.6146C14.9363 12.6146 12.256 15.2949 12.256 18.6012C12.256 21.9075 14.9363 24.5879 18.2425 24.5879C21.549 24.5879 24.2292 21.9075 24.2292 18.6012C24.2292 15.2949 21.549 12.6146 18.2425 12.6146ZM15.2492 18.6012C15.2492 16.948 16.5895 15.6079 18.2425 15.6079C19.8957 15.6079 21.2359 16.948 21.2359 18.6012C21.2359 20.2544 19.8957 21.5946 18.2425 21.5946C16.5895 21.5946 15.2492 20.2544 15.2492 18.6012Z"/>
<path fill-rule="evenodd" clip-rule="evenodd" d="M17.1746 1.38963C15.0779 1.38963 13.2225 2.83758 12.8118 4.91584L12.6935 5.51476C12.4125 6.93683 10.8515 7.87106 9.32968 7.35851L8.73572 7.15846C6.75146 6.49019 4.53082 7.27103 3.45267 9.08146L2.3849 10.8745C1.29654 12.7021 1.71054 15.0165 3.3343 16.3775L3.81005 16.7762C4.96584 17.745 4.96584 19.4575 3.81005 20.4263L3.3343 20.825C1.71054 22.1859 1.29654 24.5003 2.3849 26.3279L3.45263 28.1209C4.53081 29.9314 6.75152 30.7122 8.73581 30.0439L9.32961 29.8438C10.8515 29.3312 12.4125 30.2654 12.6935 31.6876L12.8118 32.2865C13.2225 34.3648 15.078 35.8128 17.1746 35.8128H19.3101C21.407 35.8128 23.2624 34.3648 23.6731 32.2864L23.7913 31.6877C24.0722 30.2656 25.6332 29.3312 27.1552 29.8438L27.7491 30.0439C29.7333 30.7122 31.9541 29.9314 33.0323 28.1209L34.1 26.328C35.1884 24.5005 34.7742 22.1859 33.1505 20.825L32.6747 20.4263C31.5189 19.4576 31.5189 17.7448 32.6747 16.7762L33.1505 16.3775C34.7742 15.0166 35.1884 12.7021 34.1 10.8744L33.0323 9.08145C31.9541 7.27103 29.7335 6.49018 27.7492 7.15842L27.155 7.35852C25.6332 7.87106 24.0722 6.93676 23.7913 5.51468L23.6731 4.916C23.2624 2.83767 21.407 1.38963 19.3101 1.38963H17.1746ZM15.7484 5.49609C15.8698 4.88185 16.4436 4.38295 17.1746 4.38295H19.3101C20.0413 4.38295 20.6151 4.88188 20.7365 5.49614L20.8547 6.09482C21.5035 9.37897 24.9635 11.2551 28.1104 10.1953L28.7045 9.99519C29.3915 9.76385 30.1247 10.0492 30.4604 10.613L31.5281 12.406C31.8537 12.9526 31.7432 13.6513 31.2278 14.0833L30.7521 14.482C28.1687 16.647 28.1687 20.5554 30.7521 22.7205L31.2278 23.119C31.7432 23.5511 31.8537 24.2498 31.5281 24.7965L30.4604 26.5893C30.1247 27.1531 29.3915 27.4386 28.7045 27.2072L28.1105 27.0071C24.9635 25.9471 21.5035 27.8233 20.8547 31.1076L20.7365 31.7063C20.6151 32.3205 20.0413 32.8195 19.3101 32.8195H17.1746C16.4436 32.8195 15.8698 32.3207 15.7484 31.7063L15.63 31.1073C14.9811 27.8232 11.5211 25.9471 8.37413 27.0072L7.78033 27.2072C7.09339 27.4386 6.36021 27.1531 6.02446 26.5893L4.95673 24.7964C4.6312 24.2498 4.74164 23.5511 5.25708 23.119L5.73282 22.7203C8.31601 20.5553 8.316 16.6472 5.73282 14.4821L5.25708 14.0834C4.74164 13.6514 4.6312 12.9527 4.95673 12.4061L6.0245 10.613C6.36024 10.0492 7.0934 9.76387 7.78033 9.99522L8.37429 10.1953C11.5212 11.2551 14.9811 9.37909 15.63 6.09501L15.7484 5.49609Z"/>
</mask>
<path fill-rule="evenodd" clip-rule="evenodd" d="M44.0591 44.0017C39.9065 44.0017 36.54 47.3682 36.54 51.521C36.54 55.6737 39.9065 59.0402 44.0591 59.0402C48.212 59.0402 51.5784 55.6737 51.5784 51.521C51.5784 47.3682 48.212 44.0017 44.0591 44.0017ZM40.2995 51.521C40.2995 49.4445 41.9829 47.7613 44.0591 47.7613C46.1356 47.7613 47.8188 49.4445 47.8188 51.521C47.8188 53.5974 46.1356 55.2806 44.0591 55.2806C41.9829 55.2806 40.2995 53.5974 40.2995 51.521Z" fill="white"/>
<path fill-rule="evenodd" clip-rule="evenodd" d="M42.7178 29.9031C40.0844 29.9031 37.754 31.7217 37.2381 34.332L37.0895 35.0843C36.7366 36.8704 34.776 38.0438 32.8646 37.4L32.1185 37.1488C29.6263 36.3094 26.8372 37.2902 25.483 39.5641L24.1419 41.8161C22.7749 44.1116 23.2949 47.0186 25.3343 48.7279L25.9319 49.2287C27.3836 50.4455 27.3836 52.5964 25.9319 53.8132L25.3343 54.314C23.2949 56.0233 22.7749 58.9303 24.1419 61.2257L25.4829 63.4777C26.8371 65.7517 29.6264 66.7324 32.1187 65.8931L32.8645 65.6418C34.776 64.9979 36.7366 66.1713 37.0895 67.9575L37.2382 68.7098C37.754 71.3201 40.0844 73.1388 42.7178 73.1388H45.4001C48.0337 73.1388 50.3641 71.3201 50.8799 68.7096L51.0284 67.9577C51.3813 66.1715 53.3419 64.9979 55.2535 65.6418L55.9994 65.8931C58.4917 66.7324 61.2809 65.7517 62.6352 63.4777L63.9762 61.2259C65.3432 58.9304 64.8231 56.0233 62.7837 54.314L62.1861 53.8132C60.7343 52.5966 60.7343 50.4453 62.1861 49.2287L62.7837 48.7279C64.8231 47.0186 65.3432 44.1116 63.9762 41.8161L62.6352 39.5641C61.2809 37.2902 58.4919 36.3094 55.9996 37.1487L55.2533 37.4C53.3419 38.0438 51.3813 36.8703 51.0284 35.0842L50.8799 34.3322C50.3641 31.7218 48.0337 29.9031 45.4001 29.9031H42.7178ZM40.9265 35.0608C41.079 34.2893 41.7997 33.6627 42.7178 33.6627H45.4001C46.3184 33.6627 47.0391 34.2894 47.1915 35.0609L47.34 35.8128C48.1549 39.9377 52.5007 42.2942 56.4532 40.963L57.1995 40.7117C58.0623 40.4212 58.9833 40.7796 59.4049 41.4877L60.746 43.7397C61.1548 44.4263 61.0161 45.3039 60.3687 45.8465L59.7713 46.3472C56.5265 49.0665 56.5265 53.9754 59.7713 56.6948L60.3687 57.1954C61.0161 57.7381 61.1548 58.6156 60.746 59.3023L59.4049 61.5541C58.9833 62.2622 58.0623 62.6207 57.1995 62.3301L56.4534 62.0788C52.5007 60.7475 48.1549 63.104 47.34 67.2291L47.1915 67.981C47.0391 68.7525 46.3184 69.3792 45.4001 69.3792H42.7178C41.7997 69.3792 41.079 68.7527 40.9265 67.981L40.7778 67.2287C39.9628 63.1038 35.617 60.7475 31.6644 62.0789L30.9186 62.3301C30.0558 62.6207 29.1349 62.2622 28.7132 61.5541L27.3721 59.3021C26.9632 58.6156 27.102 57.7381 27.7493 57.1954L28.3469 56.6946C31.5914 53.9752 31.5914 49.0667 28.3469 46.3473L27.7493 45.8465C27.102 45.3039 26.9632 44.4263 27.3721 43.7398L28.7132 41.4877C29.1349 40.7796 30.0558 40.4212 30.9186 40.7118L31.6646 40.963C35.6171 42.2942 39.9628 39.9379 40.7778 35.8131L40.9265 35.0608Z" fill="white"/>
<path fill-rule="evenodd" clip-rule="evenodd" d="M18.2425 12.6146C14.9363 12.6146 12.256 15.2949 12.256 18.6012C12.256 21.9075 14.9363 24.5879 18.2425 24.5879C21.549 24.5879 24.2292 21.9075 24.2292 18.6012C24.2292 15.2949 21.549 12.6146 18.2425 12.6146ZM15.2492 18.6012C15.2492 16.948 16.5895 15.6079 18.2425 15.6079C19.8957 15.6079 21.2359 16.948 21.2359 18.6012C21.2359 20.2544 19.8957 21.5946 18.2425 21.5946C16.5895 21.5946 15.2492 20.2544 15.2492 18.6012Z" fill="white"/>
<path fill-rule="evenodd" clip-rule="evenodd" d="M17.1746 1.38963C15.0779 1.38963 13.2225 2.83758 12.8118 4.91584L12.6935 5.51476C12.4125 6.93683 10.8515 7.87106 9.32968 7.35851L8.73572 7.15846C6.75146 6.49019 4.53082 7.27103 3.45267 9.08146L2.3849 10.8745C1.29654 12.7021 1.71054 15.0165 3.3343 16.3775L3.81005 16.7762C4.96584 17.745 4.96584 19.4575 3.81005 20.4263L3.3343 20.825C1.71054 22.1859 1.29654 24.5003 2.3849 26.3279L3.45263 28.1209C4.53081 29.9314 6.75152 30.7122 8.73581 30.0439L9.32961 29.8438C10.8515 29.3312 12.4125 30.2654 12.6935 31.6876L12.8118 32.2865C13.2225 34.3648 15.078 35.8128 17.1746 35.8128H19.3101C21.407 35.8128 23.2624 34.3648 23.6731 32.2864L23.7913 31.6877C24.0722 30.2656 25.6332 29.3312 27.1552 29.8438L27.7491 30.0439C29.7333 30.7122 31.9541 29.9314 33.0323 28.1209L34.1 26.328C35.1884 24.5005 34.7742 22.1859 33.1505 20.825L32.6747 20.4263C31.5189 19.4576 31.5189 17.7448 32.6747 16.7762L33.1505 16.3775C34.7742 15.0166 35.1884 12.7021 34.1 10.8744L33.0323 9.08145C31.9541 7.27103 29.7335 6.49018 27.7492 7.15842L27.155 7.35852C25.6332 7.87106 24.0722 6.93676 23.7913 5.51468L23.6731 4.916C23.2624 2.83767 21.407 1.38963 19.3101 1.38963H17.1746ZM15.7484 5.49609C15.8698 4.88185 16.4436 4.38295 17.1746 4.38295H19.3101C20.0413 4.38295 20.6151 4.88188 20.7365 5.49614L20.8547 6.09482C21.5035 9.37897 24.9635 11.2551 28.1104 10.1953L28.7045 9.99519C29.3915 9.76385 30.1247 10.0492 30.4604 10.613L31.5281 12.406C31.8537 12.9526 31.7432 13.6513 31.2278 14.0833L30.7521 14.482C28.1687 16.647 28.1687 20.5554 30.7521 22.7205L31.2278 23.119C31.7432 23.5511 31.8537 24.2498 31.5281 24.7965L30.4604 26.5893C30.1247 27.1531 29.3915 27.4386 28.7045 27.2072L28.1105 27.0071C24.9635 25.9471 21.5035 27.8233 20.8547 31.1076L20.7365 31.7063C20.6151 32.3205 20.0413 32.8195 19.3101 32.8195H17.1746C16.4436 32.8195 15.8698 32.3207 15.7484 31.7063L15.63 31.1073C14.9811 27.8232 11.5211 25.9471 8.37413 27.0072L7.78033 27.2072C7.09339 27.4386 6.36021 27.1531 6.02446 26.5893L4.95673 24.7964C4.6312 24.2498 4.74164 23.5511 5.25708 23.119L5.73282 22.7203C8.31601 20.5553 8.316 16.6472 5.73282 14.4821L5.25708 14.0834C4.74164 13.6514 4.6312 12.9527 4.95673 12.4061L6.0245 10.613C6.36024 10.0492 7.0934 9.76387 7.78033 9.99522L8.37429 10.1953C11.5212 11.2551 14.9811 9.37909 15.63 6.09501L15.7484 5.49609Z" fill="white"/>
<path fill-rule="evenodd" clip-rule="evenodd" d="M44.0591 44.0017C39.9065 44.0017 36.54 47.3682 36.54 51.521C36.54 55.6737 39.9065 59.0402 44.0591 59.0402C48.212 59.0402 51.5784 55.6737 51.5784 51.521C51.5784 47.3682 48.212 44.0017 44.0591 44.0017ZM40.2995 51.521C40.2995 49.4445 41.9829 47.7613 44.0591 47.7613C46.1356 47.7613 47.8188 49.4445 47.8188 51.521C47.8188 53.5974 46.1356 55.2806 44.0591 55.2806C41.9829 55.2806 40.2995 53.5974 40.2995 51.521Z" stroke="white" stroke-width="2" mask="url(#path-1-outside-1_52_239)"/>
<path fill-rule="evenodd" clip-rule="evenodd" d="M42.7178 29.9031C40.0844 29.9031 37.754 31.7217 37.2381 34.332L37.0895 35.0843C36.7366 36.8704 34.776 38.0438 32.8646 37.4L32.1185 37.1488C29.6263 36.3094 26.8372 37.2902 25.483 39.5641L24.1419 41.8161C22.7749 44.1116 23.2949 47.0186 25.3343 48.7279L25.9319 49.2287C27.3836 50.4455 27.3836 52.5964 25.9319 53.8132L25.3343 54.314C23.2949 56.0233 22.7749 58.9303 24.1419 61.2257L25.4829 63.4777C26.8371 65.7517 29.6264 66.7324 32.1187 65.8931L32.8645 65.6418C34.776 64.9979 36.7366 66.1713 37.0895 67.9575L37.2382 68.7098C37.754 71.3201 40.0844 73.1388 42.7178 73.1388H45.4001C48.0337 73.1388 50.3641 71.3201 50.8799 68.7096L51.0284 67.9577C51.3813 66.1715 53.3419 64.9979 55.2535 65.6418L55.9994 65.8931C58.4917 66.7324 61.2809 65.7517 62.6352 63.4777L63.9762 61.2259C65.3432 58.9304 64.8231 56.0233 62.7837 54.314L62.1861 53.8132C60.7343 52.5966 60.7343 50.4453 62.1861 49.2287L62.7837 48.7279C64.8231 47.0186 65.3432 44.1116 63.9762 41.8161L62.6352 39.5641C61.2809 37.2902 58.4919 36.3094 55.9996 37.1487L55.2533 37.4C53.3419 38.0438 51.3813 36.8703 51.0284 35.0842L50.8799 34.3322C50.3641 31.7218 48.0337 29.9031 45.4001 29.9031H42.7178ZM40.9265 35.0608C41.079 34.2893 41.7997 33.6627 42.7178 33.6627H45.4001C46.3184 33.6627 47.0391 34.2894 47.1915 35.0609L47.34 35.8128C48.1549 39.9377 52.5007 42.2942 56.4532 40.963L57.1995 40.7117C58.0623 40.4212 58.9833 40.7796 59.4049 41.4877L60.746 43.7397C61.1548 44.4263 61.0161 45.3039 60.3687 45.8465L59.7713 46.3472C56.5265 49.0665 56.5265 53.9754 59.7713 56.6948L60.3687 57.1954C61.0161 57.7381 61.1548 58.6156 60.746 59.3023L59.4049 61.5541C58.9833 62.2622 58.0623 62.6207 57.1995 62.3301L56.4534 62.0788C52.5007 60.7475 48.1549 63.104 47.34 67.2291L47.1915 67.981C47.0391 68.7525 46.3184 69.3792 45.4001 69.3792H42.7178C41.7997 69.3792 41.079 68.7527 40.9265 67.981L40.7778 67.2287C39.9628 63.1038 35.617 60.7475 31.6644 62.0789L30.9186 62.3301C30.0558 62.6207 29.1349 62.2622 28.7132 61.5541L27.3721 59.3021C26.9632 58.6156 27.102 57.7381 27.7493 57.1954L28.3469 56.6946C31.5914 53.9752 31.5914 49.0667 28.3469 46.3473L27.7493 45.8465C27.102 45.3039 26.9632 44.4263 27.3721 43.7398L28.7132 41.4877C29.1349 40.7796 30.0558 40.4212 30.9186 40.7118L31.6646 40.963C35.6171 42.2942 39.9628 39.9379 40.7778 35.8131L40.9265 35.0608Z" stroke="white" stroke-width="2" mask="url(#path-1-outside-1_52_239)"/>
<path fill-rule="evenodd" clip-rule="evenodd" d="M18.2425 12.6146C14.9363 12.6146 12.256 15.2949 12.256 18.6012C12.256 21.9075 14.9363 24.5879 18.2425 24.5879C21.549 24.5879 24.2292 21.9075 24.2292 18.6012C24.2292 15.2949 21.549 12.6146 18.2425 12.6146ZM15.2492 18.6012C15.2492 16.948 16.5895 15.6079 18.2425 15.6079C19.8957 15.6079 21.2359 16.948 21.2359 18.6012C21.2359 20.2544 19.8957 21.5946 18.2425 21.5946C16.5895 21.5946 15.2492 20.2544 15.2492 18.6012Z" stroke="white" stroke-width="2" mask="url(#path-1-outside-1_52_239)"/>
<path fill-rule="evenodd" clip-rule="evenodd" d="M17.1746 1.38963C15.0779 1.38963 13.2225 2.83758 12.8118 4.91584L12.6935 5.51476C12.4125 6.93683 10.8515 7.87106 9.32968 7.35851L8.73572 7.15846C6.75146 6.49019 4.53082 7.27103 3.45267 9.08146L2.3849 10.8745C1.29654 12.7021 1.71054 15.0165 3.3343 16.3775L3.81005 16.7762C4.96584 17.745 4.96584 19.4575 3.81005 20.4263L3.3343 20.825C1.71054 22.1859 1.29654 24.5003 2.3849 26.3279L3.45263 28.1209C4.53081 29.9314 6.75152 30.7122 8.73581 30.0439L9.32961 29.8438C10.8515 29.3312 12.4125 30.2654 12.6935 31.6876L12.8118 32.2865C13.2225 34.3648 15.078 35.8128 17.1746 35.8128H19.3101C21.407 35.8128 23.2624 34.3648 23.6731 32.2864L23.7913 31.6877C24.0722 30.2656 25.6332 29.3312 27.1552 29.8438L27.7491 30.0439C29.7333 30.7122 31.9541 29.9314 33.0323 28.1209L34.1 26.328C35.1884 24.5005 34.7742 22.1859 33.1505 20.825L32.6747 20.4263C31.5189 19.4576 31.5189 17.7448 32.6747 16.7762L33.1505 16.3775C34.7742 15.0166 35.1884 12.7021 34.1 10.8744L33.0323 9.08145C31.9541 7.27103 29.7335 6.49018 27.7492 7.15842L27.155 7.35852C25.6332 7.87106 24.0722 6.93676 23.7913 5.51468L23.6731 4.916C23.2624 2.83767 21.407 1.38963 19.3101 1.38963H17.1746ZM15.7484 5.49609C15.8698 4.88185 16.4436 4.38295 17.1746 4.38295H19.3101C20.0413 4.38295 20.6151 4.88188 20.7365 5.49614L20.8547 6.09482C21.5035 9.37897 24.9635 11.2551 28.1104 10.1953L28.7045 9.99519C29.3915 9.76385 30.1247 10.0492 30.4604 10.613L31.5281 12.406C31.8537 12.9526 31.7432 13.6513 31.2278 14.0833L30.7521 14.482C28.1687 16.647 28.1687 20.5554 30.7521 22.7205L31.2278 23.119C31.7432 23.5511 31.8537 24.2498 31.5281 24.7965L30.4604 26.5893C30.1247 27.1531 29.3915 27.4386 28.7045 27.2072L28.1105 27.0071C24.9635 25.9471 21.5035 27.8233 20.8547 31.1076L20.7365 31.7063C20.6151 32.3205 20.0413 32.8195 19.3101 32.8195H17.1746C16.4436 32.8195 15.8698 32.3207 15.7484 31.7063L15.63 31.1073C14.9811 27.8232 11.5211 25.9471 8.37413 27.0072L7.78033 27.2072C7.09339 27.4386 6.36021 27.1531 6.02446 26.5893L4.95673 24.7964C4.6312 24.2498 4.74164 23.5511 5.25708 23.119L5.73282 22.7203C8.31601 20.5553 8.316 16.6472 5.73282 14.4821L5.25708 14.0834C4.74164 13.6514 4.6312 12.9527 4.95673 12.4061L6.0245 10.613C6.36024 10.0492 7.0934 9.76387 7.78033 9.99522L8.37429 10.1953C11.5212 11.2551 14.9811 9.37909 15.63 6.09501L15.7484 5.49609Z" stroke="white" stroke-width="2" mask="url(#path-1-outside-1_52_239)"/>
</svg>
