<svg width="59" height="70" viewBox="0 0 59 70" fill="none" xmlns="http://www.w3.org/2000/svg">
<path d="M54.6471 32.9412H47.4118C43.4157 32.9412 40.1765 36.1804 40.1765 40.1765V47.4118C40.1765 51.4078 43.4157 54.6471 47.4118 54.6471H54.6471M54.6471 32.9412V54.6471M54.6471 32.9412V27.5147C54.6471 14.5279 44.1193 4 31.1324 4H27.5147C14.5279 4 4 14.5279 4 27.5147V32.9412M54.6471 54.6471L52.6783 60.5529C51.6936 63.507 48.9286 65.5 45.8146 65.5H32.9412M4 32.9412H11.2353C15.2312 32.9412 18.4706 36.1804 18.4706 40.1765V47.4118C18.4706 51.4078 15.2312 54.6471 11.2353 54.6471H4V32.9412Z" stroke="white" stroke-width="7.23529" stroke-linecap="round" stroke-linejoin="round"/>
</svg>
