<svg width="80" height="48" viewBox="0 0 80 48" fill="none" xmlns="http://www.w3.org/2000/svg">
<path d="M64.9 7.9875L58.95 2.0375C57.6332 0.732277 55.8541 -1.44825e-05 54 2.14817e-10H25.65C23.8 2.14817e-10 22.0125 0.7375 20.7 2.0375L14.75 7.9875H0V39.95H8C10.2 39.95 11.975 38.175 11.9875 35.9875H13.125L23.7 45.5375C27.5625 48.675 32.925 48.75 36.9 46.0125C38.4625 47.3625 40.15 48 42.0375 48C44.3125 48 46.45 47.075 48.1375 45C50.9 46.0875 54.1625 45.325 56.1375 42.9L59.4125 38.8625C60.1125 38 60.55 37.0125 60.775 35.9875H68.0125C68.025 38.175 69.8125 39.95 72 39.95H80V7.9875H64.9ZM6 35.95C4.9 35.95 4 35.05 4 33.95C4 32.85 4.9 31.95 6 31.95C7.1 31.95 8 32.85 8 33.95C8 35.0625 7.1 35.95 6 35.95ZM54.75 35.0875L51.4875 39.1125C51.1375 39.5375 50.5125 39.6125 50.075 39.2625L47.0875 36.8375L43.3375 41.4C42.5875 42.3125 41.4625 42 41.0875 41.7L36.4875 37.7625L34.5375 40.1625C32.8 42.3 29.6375 42.625 27.625 40.9875L15.4625 29.9875H12V13.975H17.2375L24.95 6.275C25.2 6.175 25.4125 6.0875 25.6625 5.9875H32.75L27.9125 10.425C24.2375 13.7875 24.025 19.4625 27.3625 23.0875C29.2125 25.1125 35.0125 28.2375 40.05 23.6375L41.075 22.7L54.6 33.675C55.025 34.025 55.0875 34.6625 54.75 35.0875ZM68 29.9875H59.35C59.0625 29.6375 58.7375 29.3125 58.3875 29.025L45.55 18.6L47.1125 17.175C47.925 16.425 47.9875 15.1625 47.2375 14.35L45.875 12.8875C45.125 12.075 43.8625 12.025 43.05 12.7625L36.15 19.0875C34.9625 20.175 32.9375 20.2625 31.825 19.0875C30.6625 17.85 30.7625 15.95 31.975 14.85L40.175 7.3375C41.1 6.4875 42.3 6.025 43.55 6.025L54.0125 6C54.275 6 54.525 6.1 54.7 6.2875L62.4125 13.9875H68V29.9875ZM74 35.95C72.9 35.95 72 35.05 72 33.95C72 32.85 72.9 31.95 74 31.95C75.1 31.95 76 32.85 76 33.95C76 35.0625 75.1 35.95 74 35.95Z" fill="white"/>
</svg>
