<svg width="76" height="63" viewBox="0 0 76 63" fill="none" xmlns="http://www.w3.org/2000/svg">
<path fill-rule="evenodd" clip-rule="evenodd" d="M18 40.0009C17.3369 40.0009 16.701 40.2644 16.2322 40.7332C15.7633 41.202 15.5 41.8379 15.5 42.5009C15.5 43.164 15.7633 43.7998 16.2322 44.2687C16.701 44.7375 17.3369 45.0009 18 45.0009H38C38.663 45.0009 39.2989 44.7375 39.7677 44.2687C40.2366 43.7998 40.5 43.164 40.5 42.5009C40.5 41.8379 40.2366 41.202 39.7677 40.7332C39.2989 40.2644 38.663 40.0009 38 40.0009H18Z" fill="white"/>
<path fill-rule="evenodd" clip-rule="evenodd" d="M22.9998 32.5009C22.3368 32.5009 21.7009 32.7644 21.232 33.2332C20.7632 33.7021 20.4998 34.3379 20.4998 35.0009C20.4998 35.664 20.7632 36.2998 21.232 36.7687C21.7009 37.2375 22.3368 37.5009 22.9998 37.5009H37.9998C38.6628 37.5009 39.2987 37.2375 39.7676 36.7687C40.2364 36.2998 40.4998 35.664 40.4998 35.0009C40.4998 34.3379 40.2364 33.7021 39.7676 33.2332C39.2987 32.7644 38.6628 32.5009 37.9998 32.5009H22.9998Z" fill="white"/>
<path fill-rule="evenodd" clip-rule="evenodd" d="M30.5002 25.0009C29.8371 25.0009 29.2012 25.2644 28.7324 25.7332C28.2635 26.2021 28.0002 26.8379 28.0002 27.5009C28.0002 28.164 28.2635 28.7998 28.7324 29.2687C29.2012 29.7375 29.8371 30.0009 30.5002 30.0009H38.0002C38.6632 30.0009 39.2991 29.7375 39.7679 29.2687C40.2368 28.7998 40.5002 28.164 40.5002 27.5009C40.5002 26.8379 40.2368 26.2021 39.7679 25.7332C39.2991 25.2644 38.6632 25.0009 38.0002 25.0009H30.5002Z" fill="white"/>
<path fill-rule="evenodd" clip-rule="evenodd" d="M15.5 7.53511C14.837 7.53511 14.2011 7.79846 13.7323 8.26731C13.2634 8.73615 13 9.37207 13 10.0351V15.0351C13.0001 15.6981 13.2635 16.3339 13.7323 16.8028C14.2012 17.2716 14.837 17.535 15.5 17.5351H20.5C21.1631 17.5351 21.799 17.2717 22.2678 16.8028C22.7366 16.334 23 15.6982 23 15.0351C23 14.3721 22.7366 13.7361 22.2678 13.2673C21.799 12.7985 21.1631 12.5351 20.5 12.5351H18V10.0351C18 9.37207 17.7366 8.73615 17.2678 8.26731C16.799 7.79846 16.1631 7.53511 15.5 7.53511Z" fill="white"/>
<path fill-rule="evenodd" clip-rule="evenodd" d="M15.5 0.0351562C7.24536 0.0351562 0.5 6.78053 0.5 15.0352C0.5 19.4552 2.43587 23.4417 5.5 26.1924V55.001C5.50007 55.664 5.76348 56.2999 6.23231 56.7687C6.70113 57.2375 7.33698 57.5009 8 57.501H13.4346C14.4738 60.402 17.2616 62.501 20.5 62.501C23.7384 62.501 26.5262 60.402 27.5654 57.501H50.9346C51.9738 60.402 54.7616 62.501 58 62.501C61.2384 62.501 64.0262 60.402 65.0654 57.501H73C73.663 57.5009 74.2989 57.2375 74.7677 56.7687C75.2365 56.2999 75.4999 55.664 75.5 55.001V37.501C75.5004 36.9332 75.3076 36.3821 74.9531 35.9385L64.9531 23.4385C64.7187 23.1457 64.4215 22.9095 64.0834 22.7472C63.7453 22.5849 63.375 22.5008 63 22.501H48V17.501C47.9999 16.838 47.7365 16.2021 47.2677 15.7332C46.7989 15.2644 46.163 15.001 45.5 15.001H30.5C30.4813 6.76193 23.7432 0.0351562 15.5 0.0351562ZM15.5 5.03516C21.0524 5.03516 25.5 9.48271 25.5 15.0352C25.5 20.5876 21.0524 25.0352 15.5 25.0352C13.4227 25.0352 11.4973 24.4157 9.9043 23.3457C9.66715 23.0629 9.37033 22.8361 9.03516 22.6816C6.86962 20.8521 5.5 18.1144 5.5 15.0352C5.5 9.48271 9.94755 5.03516 15.5 5.03516ZM29.6455 20.001H43V52.501H27.5654C26.5262 49.6 23.7384 47.501 20.5 47.501C17.2616 47.501 14.4738 49.6 13.4346 52.501H10.5V29.1709C12.0657 29.7283 13.7484 30.0352 15.5 30.0352C22.0155 30.0352 27.5855 25.831 29.6455 20.001ZM48 27.501H53V40.001C53.0001 40.664 53.2635 41.2999 53.7323 41.7687C54.2011 42.2375 54.837 42.5009 55.5 42.501H70.5V52.501H65.0654C64.0262 49.6 61.2384 47.501 58 47.501C54.7616 47.501 51.9738 49.6 50.9346 52.501H48V27.501ZM58 27.501H61.7988L69.7969 37.501H58V27.501ZM20.5 52.501C21.9103 52.501 23 53.5907 23 55.001C23 56.4113 21.9103 57.501 20.5 57.501C19.0897 57.501 18 56.4113 18 55.001C18 53.5907 19.0897 52.501 20.5 52.501ZM58 52.501C59.4103 52.501 60.5 53.5907 60.5 55.001C60.5 56.4113 59.4103 57.501 58 57.501C56.5897 57.501 55.5 56.4113 55.5 55.001C55.5 53.5907 56.5897 52.501 58 52.501Z" fill="white"/>
</svg>
